<svg xmlns="http://www.w3.org/2000/svg" viewBox="0 0 900 500" font-family="'Courier New',Consolas,monospace"><style>.bl{animation:bl 1.2s steps(1) infinite}@keyframes bl{50%{opacity:0}}.fl{animation:fl 5s ease-in-out infinite}@keyframes fl{50%{transform:translateY(-8px)}}.pl{animation:pl 2.4s ease-in-out infinite}@keyframes pl{50%{opacity:.5}}</style><defs><pattern id="arhz" width="12" height="12" patternUnits="userSpaceOnUse" patternTransform="rotate(45)"><rect width="6" height="12" fill="#ffb800"/></pattern><pattern id="arsc" width="4" height="4" patternUnits="userSpaceOnUse"><rect width="4" height="1" fill="#fff" opacity=".04"/></pattern><filter id="argl" x="-30%" y="-30%" width="160%" height="160%"><feGaussianBlur stdDeviation="3" result="b"/><feMerge><feMergeNode in="b"/><feMergeNode in="SourceGraphic"/></feMerge></filter></defs><polygon points="24.5,0.5 899.5,0.5 899.5,475.5 875.5,499.5 0.5,499.5 0.5,24.5" fill="#0f1113" stroke="#2b3036"/><polygon points="24.5,0.5 899.5,0.5 899.5,475.5 875.5,499.5 0.5,499.5 0.5,24.5" fill="url(#arsc)"/><path d="M110 395A340 310 0 0 1 790 395" fill="none" stroke="#2b3036" stroke-dasharray="3 7"/><path d="M8 14H20M14 8V20" stroke="#6b747d" stroke-width="1"/><path d="M880 486H892M886 480V492" stroke="#6b747d" stroke-width="1"/><text x="30" y="34" font-size="11" fill="#6b747d" letter-spacing="3">// PROJECT INDEX</text><g transform="translate(110 395) rotate(-22)"><g class="fl" style="animation-delay:-0.0s"><clipPath id="arc0"><polygon points="-44,-60 60,-60 60,44 44,60 -60,60 -60,-44"/></clipPath><polygon points="-44,-60 60,-60 60,44 44,60 -60,60 -60,-44" fill="#0b0d0f"/><g clip-path="url(#arc0)"><rect x="-60" y="-60" width="120" height="120" fill="url(#arsc)"/><path d="M6.1 0.0L6.2 0.7L6.6 1.5L7.0 2.5L7.2 3.5L7.0 4.5L6.4 5.4L5.6 6.1L4.6 6.7L3.5 7.3L2.4 7.7L1.2 8.0L0.0 8.0L-1.2 7.7L-2.2 7.0L-2.9 6.0L-3.4 5.0L-3.7 4.1L-4.2 3.6L-5.0 3.3L-6.2 3.0L-7.6 2.7L-9.0 2.1L-10.1 1.1L-10.5 0.0L-10.2 -1.1L-9.4 -2.1L-8.3 -2.9L-7.2 -3.5L-6.2 -4.0L-5.3 -4.5L-4.5 -5.0L-3.7 -5.5L-2.8 -5.8L-1.9 -5.9L-0.9 -6.0L-0.0 -6.1L1.0 -6.3L2.1 -6.6L3.4 -7.0L4.9 -7.2L6.3 -7.0L7.5 -6.4L8.1 -5.3L8.2 -4.0L7.7 -2.7L7.0 -1.6L6.4 -0.7L6.1 -0.0Z" fill="none" stroke="#ffb800" stroke-opacity="0.31" stroke-width="1"/><path d="M11.8 0.0L12.4 1.4L13.5 3.1L14.7 5.2L15.3 7.5L15.0 9.8L13.7 11.6L11.7 13.0L9.4 13.9L7.0 14.4L4.7 14.8L2.3 14.9L0.0 14.8L-2.2 14.2L-4.1 13.1L-5.6 11.6L-6.8 9.9L-7.7 8.5L-8.9 7.6L-10.7 7.0L-13.2 6.5L-16.1 5.7L-18.8 4.3L-20.8 2.3L-21.4 0.0L-20.5 -2.3L-18.5 -4.2L-15.9 -5.6L-13.4 -6.6L-11.3 -7.4L-9.7 -8.3L-8.4 -9.4L-7.2 -10.5L-5.7 -11.6L-3.9 -12.5L-2.0 -13.0L-0.0 -13.4L2.1 -13.7L4.4 -14.1L7.0 -14.4L9.8 -14.4L12.5 -13.8L14.5 -12.4L15.6 -10.2L15.6 -7.6L14.6 -5.1L13.2 -3.0L12.1 -1.4L11.8 -0.0Z" fill="none" stroke="#19e6ff" stroke-opacity="0.39" stroke-width="1"/><path d="M17.7 0.0L19.0 2.1L21.1 4.8L23.2 8.2L24.3 11.9L23.8 15.5L21.6 18.4L18.2 20.2L14.2 21.0L10.3 21.1L6.6 20.9L3.2 20.6L0.0 20.3L-3.1 19.7L-5.9 18.7L-8.3 17.1L-10.4 15.3L-12.3 13.6L-14.5 12.3L-17.3 11.3L-21.0 10.3L-25.2 8.9L-29.0 6.6L-31.5 3.5L-32.0 0.0L-30.3 -3.4L-26.9 -6.1L-22.7 -8.0L-18.7 -9.2L-15.6 -10.2L-13.5 -11.5L-12.1 -13.3L-10.6 -15.6L-8.8 -18.0L-6.3 -19.9L-3.3 -21.3L-0.0 -21.9L3.4 -22.2L7.0 -22.1L10.7 -21.9L14.5 -21.3L18.0 -19.9L20.7 -17.6L22.1 -14.4L22.1 -10.8L20.8 -7.3L19.0 -4.3L17.8 -2.0L17.7 -0.0Z" fill="none" stroke="#ffb800" stroke-opacity="0.48" stroke-width="1"/><path d="M24.5 0.0L26.6 3.0L29.7 6.8L32.7 11.5L34.1 16.7L33.1 21.6L29.8 25.3L24.6 27.3L18.8 27.6L13.1 26.9L8.2 25.9L3.9 25.1L0.0 24.8L-3.8 24.5L-7.6 24.1L-11.2 23.0L-14.6 21.5L-17.8 19.7L-21.1 18.0L-25.0 16.3L-29.6 14.5L-34.5 12.2L-38.9 8.9L-41.7 4.7L-41.8 0.0L-39.1 -4.4L-34.3 -7.8L-28.6 -10.1L-23.3 -11.4L-19.5 -12.7L-17.1 -14.5L-15.7 -17.4L-14.4 -21.2L-12.3 -25.1L-9.0 -28.5L-4.8 -30.7L-0.0 -31.6L4.9 -31.3L9.6 -30.4L14.1 -29.0L18.5 -27.3L22.6 -25.0L25.7 -21.9L27.6 -18.0L27.8 -13.6L26.7 -9.4L25.1 -5.7L24.1 -2.7L24.5 -0.0Z" fill="none" stroke="#19e6ff" stroke-opacity="0.56" stroke-width="1"/><path d="M32.8 0.0L35.6 4.0L39.4 9.0L42.7 15.0L44.0 21.6L42.3 27.6L37.5 31.9L30.6 33.9L22.8 33.5L15.5 31.8L9.4 29.9L4.4 28.7L0.0 28.5L-4.5 29.1L-9.4 29.8L-14.5 29.8L-19.6 28.8L-24.3 27.0L-28.9 24.6L-33.6 21.9L-38.6 19.0L-43.7 15.4L-48.0 10.9L-50.5 5.6L-50.0 0.0L-46.5 -5.2L-40.7 -9.3L-33.9 -11.9L-27.7 -13.6L-23.4 -15.3L-21.0 -17.9L-19.9 -22.0L-18.6 -27.5L-16.2 -33.2L-12.0 -38.1L-6.4 -41.2L-0.0 -41.9L6.3 -40.7L12.1 -38.3L17.2 -35.3L21.9 -32.2L26.1 -28.9L29.7 -25.2L32.1 -20.9L33.1 -16.3L32.8 -11.6L32.0 -7.3L31.7 -3.5L32.8 -0.0Z" fill="none" stroke="#ffb800" stroke-opacity="0.65" stroke-width="1"/><path d="M42.9 0.0L46.0 5.1L49.8 11.3L52.9 18.6L53.6 26.3L50.8 33.1L44.5 37.8L35.7 39.6L26.2 38.6L17.5 35.9L10.5 33.2L4.9 31.8L0.0 32.2L-5.3 34.0L-11.4 36.2L-18.3 37.6L-25.3 37.3L-31.9 35.3L-37.7 32.0L-42.8 27.9L-47.6 23.4L-52.1 18.3L-55.7 12.7L-57.5 6.4L-56.5 0.0L-52.6 -5.9L-46.2 -10.5L-39.0 -13.7L-32.5 -16.0L-28.1 -18.3L-25.8 -21.9L-24.8 -27.5L-23.5 -34.6L-20.5 -42.2L-15.3 -48.4L-8.1 -52.0L-0.0 -52.3L7.7 -49.8L14.3 -45.4L19.7 -40.5L24.4 -35.9L28.6 -31.7L32.6 -27.7L36.1 -23.5L38.5 -18.9L39.8 -14.0L40.4 -9.2L41.1 -4.6L42.9 -0.0Z" fill="none" stroke="#19e6ff" stroke-opacity="0.73" stroke-width="1"/><path d="M54.7 0.0L57.5 6.4L60.5 13.8L62.6 22.0L62.1 30.5L58.0 37.8L50.2 42.7L40.0 44.3L29.0 42.7L19.2 39.5L11.5 36.4L5.4 35.1L0.0 36.4L-6.2 39.8L-13.8 43.7L-22.7 46.5L-31.8 46.9L-40.2 44.5L-47.0 39.9L-52.1 34.0L-56.0 27.5L-59.1 20.8L-61.5 14.0L-62.5 7.0L-61.3 0.0L-57.5 -6.4L-51.5 -11.7L-44.6 -15.7L-38.4 -18.8L-34.0 -22.2L-31.8 -27.0L-30.7 -34.0L-29.0 -42.6L-25.2 -51.6L-18.6 -58.9L-9.7 -62.7L-0.0 -62.2L9.0 -58.0L16.2 -51.5L21.7 -44.6L26.2 -38.5L30.4 -33.7L35.1 -29.8L39.9 -26.1L44.5 -21.8L48.0 -16.9L50.6 -11.5L52.5 -5.9L54.7 -0.0Z" fill="none" stroke="#ffb800" stroke-opacity="0.82" stroke-width="1.4"/><path d="M-8 0H8M0 -8V8" stroke="#d7dde3" opacity=".7"/></g><polygon points="-44,-60 60,-60 60,44 44,60 -60,60 -60,-44" fill="none" stroke="#ffb800" stroke-opacity=".7"/><text x="-50" y="-44" font-size="11" fill="#ffb800">01</text><text y="82" text-anchor="middle" font-size="12" fill="#d7dde3" letter-spacing="1">CLASSROOM-DL</text></g></g><g transform="translate(175 213) rotate(-13)"><g class="fl" style="animation-delay:-0.8s"><clipPath id="arc1"><polygon points="-44,-60 60,-60 60,44 44,60 -60,60 -60,-44"/></clipPath><polygon points="-44,-60 60,-60 60,44 44,60 -60,60 -60,-44" fill="#0b0d0f"/><g clip-path="url(#arc1)"><rect x="-60" y="-60" width="120" height="120" fill="url(#arsc)"/><path d="M6.4 0.0L7.2 0.8L8.3 1.9L9.3 3.3L9.8 4.8L9.4 6.1L8.2 6.9L6.4 7.1L4.5 6.6L2.8 5.8L1.6 5.0L0.7 4.7L0.0 4.8L-0.8 5.2L-1.8 5.8L-3.0 6.1L-4.2 6.2L-5.3 5.8L-6.2 5.3L-7.2 4.7L-8.1 4.0L-9.1 3.2L-10.0 2.3L-10.4 1.2L-10.2 0.0L-9.2 -1.0L-7.7 -1.8L-6.0 -2.1L-4.6 -2.3L-3.8 -2.5L-3.6 -3.0L-3.7 -4.1L-3.8 -5.6L-3.5 -7.2L-2.7 -8.6L-1.4 -9.3L-0.0 -9.3L1.4 -8.7L2.5 -7.8L3.4 -6.9L4.1 -6.0L4.8 -5.3L5.5 -4.7L6.0 -3.9L6.2 -3.1L6.2 -2.2L6.0 -1.4L6.0 -0.7L6.4 -0.0Z" fill="none" stroke="#ffb800" stroke-opacity="0.31" stroke-width="1"/><path d="M14.6 0.0L15.9 1.8L17.6 4.0L19.0 6.7L19.4 9.5L18.4 12.0L15.8 13.4L12.2 13.5L8.4 12.3L5.1 10.6L2.8 9.0L1.3 8.4L0.0 8.9L-1.6 10.4L-3.8 12.1L-6.5 13.3L-9.3 13.7L-11.8 13.1L-13.8 11.7L-15.2 9.9L-16.5 8.1L-17.6 6.2L-18.6 4.2L-19.1 2.1L-18.6 0.0L-17.0 -1.9L-14.4 -3.3L-11.6 -4.1L-9.3 -4.6L-7.9 -5.2L-7.7 -6.5L-8.0 -8.9L-8.2 -12.1L-7.5 -15.5L-5.7 -18.2L-3.0 -19.5L-0.0 -19.3L2.7 -17.6L4.8 -15.1L6.2 -12.7L7.3 -10.7L8.4 -9.3L9.7 -8.2L11.0 -7.2L12.2 -6.0L13.0 -4.6L13.4 -3.1L13.8 -1.5L14.6 -0.0Z" fill="none" stroke="#19e6ff" stroke-opacity="0.39" stroke-width="1"/><path d="M24.8 0.0L26.0 2.9L27.4 6.2L28.4 10.0L28.2 13.8L26.2 17.1L22.2 18.9L17.0 18.9L11.7 17.2L7.1 14.7L4.0 12.6L1.9 12.0L0.0 13.3L-2.5 16.1L-6.1 19.3L-10.6 21.8L-15.3 22.6L-19.4 21.4L-22.2 18.8L-23.7 15.5L-24.5 12.0L-24.9 8.8L-25.3 5.8L-25.5 2.9L-24.9 0.0L-23.3 -2.6L-20.6 -4.7L-17.5 -6.2L-14.8 -7.3L-13.3 -8.6L-12.9 -11.0L-13.2 -14.6L-13.2 -19.4L-11.9 -24.4L-8.9 -28.3L-4.6 -29.9L-0.0 -29.0L4.0 -25.8L6.8 -21.5L8.4 -17.3L9.5 -14.0L10.9 -12.1L13.0 -11.0L15.7 -10.3L18.6 -9.1L21.0 -7.4L22.7 -5.2L23.8 -2.7L24.8 -0.0Z" fill="none" stroke="#ffb800" stroke-opacity="0.48" stroke-width="1"/><path d="M36.7 0.0L36.9 4.1L37.0 8.4L36.7 12.9L35.4 17.4L32.3 21.1L27.3 23.2L21.0 23.3L14.5 21.4L9.1 18.6L5.2 16.5L2.5 16.3L0.0 18.6L-3.5 22.9L-8.7 27.7L-15.3 31.3L-22.0 32.3L-27.5 30.4L-30.8 26.2L-31.9 20.8L-31.5 15.4L-30.5 10.8L-29.9 6.8L-29.8 3.3L-29.6 0.0L-28.8 -3.2L-27.0 -6.2L-24.5 -8.6L-22.0 -10.8L-20.3 -13.2L-19.6 -16.6L-19.3 -21.4L-18.6 -27.4L-16.3 -33.4L-12.0 -38.0L-6.1 -39.6L-0.0 -37.8L5.1 -33.0L8.4 -26.7L10.1 -20.8L11.2 -16.5L12.9 -14.3L16.0 -13.6L20.7 -13.5L25.9 -12.7L30.7 -10.8L34.1 -7.8L35.9 -4.0L36.7 -0.0Z" fill="none" stroke="#19e6ff" stroke-opacity="0.56" stroke-width="1"/><path d="M49.6 0.0L47.9 5.4L45.7 10.4L43.3 15.2L40.5 19.9L36.5 23.8L31.0 26.3L24.2 26.9L17.3 25.5L11.3 23.2L6.8 21.6L3.4 22.1L0.0 25.5L-4.8 31.1L-11.7 37.1L-20.2 41.5L-28.8 42.4L-35.5 39.4L-39.1 33.2L-39.3 25.6L-37.1 18.2L-34.4 12.1L-32.6 7.4L-32.4 3.6L-33.3 0.0L-34.3 -3.8L-34.4 -7.8L-33.2 -11.7L-31.3 -15.3L-29.2 -19.1L-27.6 -23.5L-26.2 -29.0L-24.1 -35.5L-20.4 -41.9L-14.7 -46.5L-7.4 -47.7L-0.0 -45.0L6.0 -38.8L9.7 -30.9L11.5 -23.6L12.6 -18.6L14.9 -16.5L19.5 -16.6L26.5 -17.3L34.6 -17.0L42.1 -14.8L47.4 -10.8L49.8 -5.6L49.6 -0.0Z" fill="none" stroke="#ffb800" stroke-opacity="0.65" stroke-width="1"/><path d="M62.6 0.0L58.1 6.5L52.7 12.0L47.8 16.8L43.3 21.3L38.8 25.3L33.5 28.4L27.1 30.1L20.4 30.0L14.2 29.1L9.0 28.6L4.7 30.0L0.0 34.2L-6.3 40.6L-14.9 47.2L-25.1 51.6L-35.3 51.9L-42.9 47.5L-46.3 39.4L-45.3 29.5L-41.3 20.3L-36.8 12.9L-34.0 7.7L-34.2 3.8L-36.9 0.0L-40.5 -4.5L-43.3 -9.9L-44.1 -15.5L-42.8 -21.0L-40.1 -26.1L-36.8 -31.3L-33.4 -37.0L-29.3 -43.1L-23.9 -49.0L-16.7 -53.1L-8.3 -53.8L-0.0 -50.3L6.7 -43.2L10.9 -34.5L12.9 -26.5L14.5 -21.3L17.6 -19.5L24.0 -20.4L33.6 -21.9L44.8 -22.0L55.1 -19.4L62.0 -14.1L64.4 -7.2L62.6 -0.0Z" fill="none" stroke="#19e6ff" stroke-opacity="0.73" stroke-width="1"/><path d="M74.6 0.0L66.7 7.5L57.8 13.2L50.0 17.6L44.2 21.7L39.7 25.9L35.4 30.1L30.3 33.5L24.3 35.7L18.0 36.9L12.0 38.0L6.2 40.3L0.0 44.8L-7.9 50.9L-18.0 57.1L-29.6 60.8L-40.8 60.1L-48.9 54.2L-52.0 44.2L-49.9 32.5L-44.3 21.7L-38.3 13.5L-35.1 8.0L-36.3 4.1L-41.4 0.0L-48.3 -5.4L-54.3 -12.4L-57.1 -20.1L-56.3 -27.6L-52.3 -34.1L-46.7 -39.7L-40.4 -44.7L-33.7 -49.7L-26.4 -54.2L-18.1 -57.3L-8.9 -57.4L-0.0 -53.8L7.3 -46.8L12.0 -38.1L14.7 -30.3L17.2 -25.3L21.7 -24.1L30.0 -25.5L42.2 -27.5L56.2 -27.6L68.8 -24.2L76.9 -17.5L78.7 -8.8L74.6 -0.0Z" fill="none" stroke="#ffb800" stroke-opacity="0.82" stroke-width="1.4"/><path d="M-8 0H8M0 -8V8" stroke="#d7dde3" opacity=".7"/></g><polygon points="-44,-60 60,-60 60,44 44,60 -60,60 -60,-44" fill="none" stroke="#19e6ff" stroke-opacity=".7"/><text x="-50" y="-44" font-size="11" fill="#ffb800">02</text><text y="82" text-anchor="middle" font-size="12" fill="#d7dde3" letter-spacing="1">BEAUTY-FINDER</text></g></g><g transform="translate(345 100) rotate(-4)"><g class="fl" style="animation-delay:-1.6s"><clipPath id="arc2"><polygon points="-44,-60 60,-60 60,44 44,60 -60,60 -60,-44"/></clipPath><polygon points="-44,-60 60,-60 60,44 44,60 -60,60 -60,-44" fill="#0b0d0f"/><g clip-path="url(#arc2)"><rect x="-60" y="-60" width="120" height="120" fill="url(#arsc)"/><path d="M9.9 0.0L9.3 1.0L8.5 1.9L7.7 2.7L7.0 3.4L6.2 4.1L5.4 4.6L4.4 4.9L3.5 5.1L2.5 5.2L1.7 5.4L0.9 5.8L0.0 6.5L-1.1 7.3L-2.5 7.9L-4.0 8.3L-5.4 8.0L-6.5 7.2L-7.0 6.0L-7.0 4.6L-6.6 3.3L-6.3 2.2L-6.1 1.4L-6.2 0.7L-6.6 0.0L-7.1 -0.8L-7.5 -1.7L-7.6 -2.7L-7.4 -3.6L-6.9 -4.5L-6.3 -5.4L-5.7 -6.3L-4.8 -7.1L-3.8 -7.8L-2.6 -8.2L-1.3 -8.1L-0.0 -7.6L1.0 -6.7L1.8 -5.7L2.3 -4.8L2.8 -4.2L3.6 -4.0L4.7 -4.0L6.1 -4.0L7.7 -3.8L9.1 -3.2L9.9 -2.3L10.2 -1.1L9.9 -0.0Z" fill="none" stroke="#ffb800" stroke-opacity="0.31" stroke-width="1"/><path d="M19.9 0.0L18.1 2.0L16.0 3.6L14.1 5.0L12.6 6.2L11.4 7.4L10.1 8.6L8.7 9.7L7.2 10.5L5.5 11.3L3.8 11.9L2.0 12.8L0.0 14.0L-2.4 15.2L-5.1 16.2L-8.0 16.5L-10.7 15.8L-12.6 14.0L-13.4 11.4L-13.2 8.6L-12.4 6.1L-11.6 4.1L-11.3 2.6L-11.9 1.3L-13.3 0.0L-14.8 -1.7L-16.0 -3.6L-16.5 -5.8L-16.1 -7.9L-14.9 -9.7L-13.3 -11.3L-11.4 -12.7L-9.4 -13.8L-7.2 -14.8L-4.8 -15.3L-2.3 -15.1L-0.0 -14.2L2.0 -12.7L3.5 -11.0L4.6 -9.5L5.9 -8.6L7.6 -8.4L10.0 -8.5L13.1 -8.5L16.3 -8.0L19.1 -6.7L20.7 -4.7L20.9 -2.3L19.9 -0.0Z" fill="none" stroke="#19e6ff" stroke-opacity="0.39" stroke-width="1"/><path d="M29.3 0.0L25.9 2.9L22.3 5.1L19.3 6.8L17.2 8.4L15.8 10.3L14.6 12.4L13.3 14.7L11.4 16.7L9.0 18.4L6.3 19.8L3.3 21.1L0.0 22.4L-3.7 23.6L-7.7 24.3L-11.8 24.2L-15.4 22.7L-18.0 19.9L-19.0 16.2L-18.7 12.2L-17.5 8.6L-16.5 5.8L-16.4 3.7L-17.9 2.0L-20.5 0.0L-23.4 -2.6L-25.8 -5.9L-26.7 -9.4L-25.9 -12.7L-23.7 -15.4L-20.5 -17.4L-17.0 -18.8L-13.5 -19.9L-10.0 -20.6L-6.6 -21.0L-3.2 -20.8L-0.0 -19.9L2.8 -18.3L5.2 -16.5L7.2 -14.9L9.4 -13.9L12.3 -13.6L16.1 -13.7L20.8 -13.5L25.6 -12.5L29.5 -10.4L31.6 -7.2L31.4 -3.5L29.3 -0.0Z" fill="none" stroke="#ffb800" stroke-opacity="0.48" stroke-width="1"/><path d="M37.6 0.0L32.6 3.6L27.5 6.3L23.5 8.3L21.1 10.3L20.0 13.0L19.4 16.5L18.3 20.3L16.3 24.0L13.1 27.0L9.2 29.1L4.7 30.4L0.0 31.3L-4.9 31.8L-10.0 31.8L-15.0 30.8L-19.4 28.5L-22.5 24.9L-23.8 20.2L-23.5 15.4L-22.4 11.0L-21.6 7.6L-22.2 5.1L-24.7 2.8L-28.7 0.0L-33.2 -3.7L-36.6 -8.3L-37.8 -13.3L-36.3 -17.8L-32.6 -21.3L-27.5 -23.4L-22.0 -24.4L-16.9 -24.8L-12.2 -25.1L-8.0 -25.4L-3.9 -25.4L-0.0 -25.0L3.7 -24.1L7.1 -22.7L10.4 -21.3L13.8 -20.3L17.9 -19.8L23.1 -19.6L29.0 -18.9L35.0 -17.2L39.6 -14.0L41.8 -9.5L41.0 -4.6L37.6 -0.0Z" fill="none" stroke="#19e6ff" stroke-opacity="0.56" stroke-width="1"/><path d="M44.6 0.0L38.2 4.3L32.0 7.3L27.4 9.6L25.1 12.3L24.6 16.1L24.8 21.1L24.2 26.8L21.9 32.3L17.9 36.7L12.4 39.3L6.3 40.4L0.0 40.2L-6.1 39.4L-12.0 38.0L-17.5 36.0L-22.4 32.9L-26.0 28.8L-27.9 23.7L-28.3 18.4L-27.8 13.6L-27.7 9.8L-29.2 6.7L-32.9 3.7L-38.3 0.0L-43.9 -4.9L-48.1 -10.9L-49.2 -17.3L-46.7 -22.9L-41.1 -26.8L-33.8 -28.7L-26.3 -29.1L-19.5 -28.7L-13.8 -28.4L-9.0 -28.7L-4.6 -29.4L-0.0 -30.2L4.7 -30.4L9.5 -30.0L14.2 -29.1L19.1 -28.1L24.5 -27.1L30.7 -26.1L37.5 -24.4L44.0 -21.6L48.8 -17.2L50.8 -11.6L49.2 -5.5L44.6 -0.0Z" fill="none" stroke="#ffb800" stroke-opacity="0.65" stroke-width="1"/><path d="M50.3 0.0L43.2 4.8L36.4 8.3L31.8 11.2L29.9 14.7L30.2 19.7L31.1 26.4L30.9 34.2L28.2 41.6L23.0 47.2L15.8 50.1L7.8 50.3L0.0 48.6L-7.1 45.9L-13.5 42.8L-19.3 39.6L-24.5 36.0L-28.8 31.8L-31.7 27.0L-33.4 21.8L-34.2 16.8L-35.5 12.5L-38.1 8.7L-42.8 4.8L-49.1 0.0L-55.4 -6.2L-59.6 -13.6L-60.1 -21.2L-56.2 -27.6L-48.7 -31.8L-39.2 -33.3L-29.7 -32.8L-21.5 -31.6L-15.1 -30.9L-9.9 -31.5L-5.2 -33.4L-0.0 -35.9L5.9 -37.9L12.2 -38.8L18.8 -38.5L25.2 -37.1L31.8 -35.2L38.6 -32.8L45.5 -29.7L51.9 -25.4L56.4 -19.9L57.9 -13.2L55.7 -6.2L50.3 -0.0Z" fill="none" stroke="#19e6ff" stroke-opacity="0.73" stroke-width="1"/><path d="M55.2 0.0L48.2 5.4L41.7 9.5L37.4 13.2L36.1 17.7L37.1 24.2L38.5 32.7L38.3 42.4L34.9 51.4L28.2 57.9L19.1 60.7L9.2 59.7L0.0 55.9L-7.9 50.9L-14.5 46.1L-20.4 41.9L-25.9 38.2L-31.2 34.5L-35.7 30.4L-39.4 25.7L-42.3 20.8L-45.2 15.9L-49.0 11.2L-54.4 6.1L-60.8 0.0L-66.8 -7.5L-70.4 -16.0L-69.8 -24.6L-64.4 -31.6L-55.0 -35.9L-43.5 -37.0L-32.3 -35.8L-23.1 -34.0L-16.2 -33.2L-10.9 -34.6L-5.9 -38.1L-0.0 -42.7L7.2 -46.8L15.5 -49.2L24.0 -49.2L32.1 -47.2L39.5 -43.7L46.3 -39.3L52.6 -34.3L58.2 -28.5L62.0 -21.8L63.0 -14.3L60.6 -6.8L55.2 -0.0Z" fill="none" stroke="#ffb800" stroke-opacity="0.82" stroke-width="1.4"/><path d="M-8 0H8M0 -8V8" stroke="#d7dde3" opacity=".7"/></g><polygon points="-44,-60 60,-60 60,44 44,60 -60,60 -60,-44" fill="none" stroke="#ffb800" stroke-opacity=".7"/><text x="-50" y="-44" font-size="11" fill="#ffb800">03</text><text y="82" text-anchor="middle" font-size="12" fill="#d7dde3" letter-spacing="1">FAKEJOBPOSTING</text></g></g><g transform="translate(555 100) rotate(4)"><g class="fl" style="animation-delay:-2.4s"><clipPath id="arc3"><polygon points="-44,-60 60,-60 60,44 44,60 -60,60 -60,-44"/></clipPath><polygon points="-44,-60 60,-60 60,44 44,60 -60,60 -60,-44" fill="#0b0d0f"/><g clip-path="url(#arc3)"><rect x="-60" y="-60" width="120" height="120" fill="url(#arsc)"/><path d="M8.8 0.0L7.5 0.8L6.2 1.4L5.4 1.9L5.1 2.5L5.2 3.4L5.4 4.6L5.4 6.0L4.8 7.1L3.8 7.8L2.5 8.0L1.2 7.7L0.0 7.3L-1.1 7.0L-2.1 6.7L-3.2 6.6L-4.3 6.4L-5.3 5.8L-5.9 5.0L-6.2 4.0L-6.1 3.0L-6.0 2.1L-6.1 1.4L-6.8 0.8L-7.8 0.0L-8.9 -1.0L-9.8 -2.2L-9.9 -3.5L-9.2 -4.5L-7.9 -5.2L-6.3 -5.3L-4.7 -5.2L-3.5 -5.1L-2.5 -5.2L-1.8 -5.6L-1.0 -6.2L-0.0 -6.8L1.1 -7.0L2.2 -6.9L3.1 -6.4L4.0 -5.8L4.8 -5.3L5.8 -4.9L7.0 -4.6L8.2 -4.0L9.3 -3.3L9.9 -2.2L9.7 -1.1L8.8 -0.0Z" fill="none" stroke="#ffb800" stroke-opacity="0.31" stroke-width="1"/><path d="M17.0 0.0L14.7 1.6L12.4 2.8L10.9 3.8L10.3 5.1L10.6 6.9L11.1 9.5L11.1 12.3L10.0 14.8L8.0 16.3L5.3 16.7L2.5 15.9L0.0 14.7L-2.1 13.4L-4.0 12.6L-5.9 12.1L-8.0 11.7L-10.0 11.1L-11.6 9.8L-12.5 8.2L-12.8 6.3L-12.9 4.5L-13.3 3.0L-14.3 1.6L-16.1 0.0L-18.1 -2.0L-19.6 -4.5L-19.8 -7.0L-18.4 -9.0L-15.6 -10.2L-12.3 -10.4L-9.1 -10.1L-6.5 -9.6L-4.7 -9.7L-3.3 -10.5L-1.9 -12.0L-0.0 -13.5L2.2 -14.5L4.6 -14.6L6.8 -13.9L8.6 -12.7L10.2 -11.3L11.8 -10.1L13.8 -9.0L15.9 -7.8L17.7 -6.2L18.7 -4.3L18.5 -2.1L17.0 -0.0Z" fill="none" stroke="#19e6ff" stroke-opacity="0.39" stroke-width="1"/><path d="M24.9 0.0L22.1 2.5L19.1 4.3L16.9 6.0L16.1 7.9L16.5 10.8L17.2 14.6L17.1 18.9L15.5 22.8L12.3 25.2L8.1 25.6L3.8 24.2L0.0 21.8L-3.0 19.3L-5.5 17.5L-8.1 16.6L-11.1 16.3L-14.2 15.8L-17.2 14.6L-19.4 12.6L-20.6 10.1L-21.1 7.4L-21.6 4.9L-22.8 2.6L-24.9 0.0L-27.2 -3.0L-28.9 -6.6L-29.0 -10.2L-26.9 -13.2L-22.9 -14.9L-18.0 -15.3L-13.2 -14.6L-9.4 -13.8L-6.7 -13.9L-4.8 -15.2L-2.7 -17.7L-0.0 -20.5L3.5 -22.6L7.3 -23.3L10.9 -22.4L13.8 -20.3L16.0 -17.7L18.0 -15.3L20.1 -13.1L22.5 -11.0L24.8 -8.7L26.4 -6.0L26.5 -3.0L24.9 -0.0Z" fill="none" stroke="#ffb800" stroke-opacity="0.48" stroke-width="1"/><path d="M32.6 0.0L30.0 3.4L26.7 6.1L24.1 8.5L22.9 11.2L23.1 15.0L23.6 20.0L23.2 25.7L20.9 30.7L16.5 33.9L10.8 34.3L5.0 32.2L0.0 28.4L-3.8 24.5L-6.8 21.7L-9.9 20.4L-13.8 20.3L-18.3 20.3L-23.0 19.6L-26.9 17.6L-29.5 14.5L-30.7 10.8L-31.3 7.1L-32.1 3.6L-33.7 0.0L-35.8 -4.0L-37.3 -8.5L-37.1 -13.1L-34.5 -16.9L-29.5 -19.3L-23.3 -19.8L-17.2 -19.0L-12.3 -18.1L-8.8 -18.2L-6.3 -20.1L-3.7 -23.7L-0.0 -27.9L4.9 -31.4L10.3 -32.7L15.4 -31.6L19.4 -28.5L22.0 -24.4L23.8 -20.3L25.7 -16.7L27.9 -13.7L30.5 -10.8L32.8 -7.5L33.6 -3.8L32.6 -0.0Z" fill="none" stroke="#19e6ff" stroke-opacity="0.56" stroke-width="1"/><path d="M40.6 0.0L38.8 4.3L35.8 8.1L32.8 11.5L30.9 15.1L30.3 19.7L30.1 25.6L29.1 32.2L25.9 38.2L20.4 41.9L13.4 42.4L6.1 39.5L0.0 34.5L-4.5 29.3L-8.0 25.5L-11.7 23.9L-16.4 24.1L-22.5 24.9L-29.3 24.9L-35.3 23.0L-39.5 19.4L-41.5 14.6L-41.9 9.6L-41.9 4.7L-42.3 0.0L-43.3 -4.9L-44.3 -10.1L-43.8 -15.4L-40.9 -20.1L-35.5 -23.1L-28.5 -24.2L-21.4 -23.7L-15.5 -22.8L-11.3 -23.1L-8.1 -25.6L-4.7 -30.3L-0.0 -35.9L6.3 -40.5L13.4 -42.5L20.1 -41.2L25.0 -36.8L27.9 -30.9L29.3 -24.9L30.4 -19.8L32.2 -15.8L35.0 -12.3L38.1 -8.7L40.3 -4.5L40.6 -0.0Z" fill="none" stroke="#ffb800" stroke-opacity="0.65" stroke-width="1"/><path d="M49.2 0.0L48.9 5.5L46.4 10.6L42.9 15.1L39.9 19.6L38.0 24.8L36.6 31.1L34.5 38.2L30.4 44.7L23.8 48.9L15.6 49.4L7.1 46.2L0.0 40.3L-5.3 34.0L-9.3 29.4L-13.5 27.6L-19.2 28.3L-27.0 29.9L-36.0 30.6L-44.5 29.0L-50.5 24.8L-53.3 18.8L-53.2 12.1L-51.7 5.8L-50.3 0.0L-49.7 -5.6L-49.7 -11.3L-48.9 -17.2L-46.2 -22.7L-40.9 -26.7L-33.7 -28.7L-26.1 -28.9L-19.4 -28.5L-14.2 -29.2L-10.1 -32.2L-5.8 -37.6L-0.0 -44.2L7.7 -49.8L16.5 -52.2L24.6 -50.4L30.5 -44.9L33.5 -37.1L34.3 -29.1L34.4 -22.5L35.6 -17.5L38.5 -13.6L42.8 -9.7L46.9 -5.2L49.2 -0.0Z" fill="none" stroke="#19e6ff" stroke-opacity="0.73" stroke-width="1"/><path d="M58.7 0.0L60.3 6.8L58.6 13.3L54.6 19.2L49.9 24.5L45.9 30.0L42.6 36.2L39.1 43.3L33.9 49.9L26.5 54.5L17.4 55.3L8.1 52.1L0.0 46.0L-6.1 39.1L-10.7 34.0L-15.7 32.1L-22.5 33.2L-32.1 35.5L-43.3 36.8L-54.1 35.3L-62.0 30.4L-65.4 23.0L-64.6 14.7L-61.2 6.8L-57.3 0.0L-54.7 -6.1L-53.5 -12.2L-52.6 -18.5L-50.5 -24.8L-46.1 -30.1L-39.4 -33.5L-31.6 -35.0L-24.1 -35.5L-17.9 -36.6L-12.6 -39.9L-7.1 -45.6L-0.0 -52.6L9.1 -58.6L19.3 -61.2L28.7 -59.0L35.5 -52.2L38.6 -42.7L38.7 -32.9L37.9 -24.7L38.5 -18.9L41.7 -14.7L47.4 -10.8L53.8 -6.0L58.7 -0.0Z" fill="none" stroke="#ffb800" stroke-opacity="0.82" stroke-width="1.4"/><path d="M-8 0H8M0 -8V8" stroke="#d7dde3" opacity=".7"/></g><polygon points="-44,-60 60,-60 60,44 44,60 -60,60 -60,-44" fill="none" stroke="#19e6ff" stroke-opacity=".7"/><text x="-50" y="-44" font-size="11" fill="#ffb800">04</text><text y="82" text-anchor="middle" font-size="12" fill="#d7dde3" letter-spacing="1">SHARESPLIT</text></g></g><g transform="translate(725 213) rotate(13)"><g class="fl" style="animation-delay:-3.2s"><clipPath id="arc4"><polygon points="-44,-60 60,-60 60,44 44,60 -60,60 -60,-44"/></clipPath><polygon points="-44,-60 60,-60 60,44 44,60 -60,60 -60,-44" fill="#0b0d0f"/><g clip-path="url(#arc4)"><rect x="-60" y="-60" width="120" height="120" fill="url(#arsc)"/><path d="M7.1 0.0L7.1 0.8L7.1 1.6L7.0 2.5L7.0 3.4L6.9 4.5L6.7 5.7L6.2 6.9L5.4 7.9L4.1 8.4L2.6 8.3L1.2 7.6L0.0 6.6L-0.9 5.5L-1.5 4.8L-2.1 4.4L-3.0 4.4L-4.1 4.6L-5.5 4.7L-6.9 4.5L-8.1 4.0L-9.0 3.2L-9.4 2.1L-9.6 1.1L-9.5 0.0L-9.3 -1.0L-8.9 -2.0L-8.3 -2.9L-7.4 -3.6L-6.2 -4.1L-5.0 -4.2L-3.8 -4.3L-2.9 -4.3L-2.3 -4.6L-1.7 -5.3L-1.0 -6.4L-0.0 -7.5L1.3 -8.4L2.8 -8.8L4.2 -8.6L5.3 -7.8L5.9 -6.6L6.2 -5.3L6.2 -4.1L6.2 -3.1L6.3 -2.2L6.6 -1.5L6.9 -0.8L7.1 -0.0Z" fill="none" stroke="#ffb800" stroke-opacity="0.31" stroke-width="1"/><path d="M14.7 0.0L15.5 1.7L15.8 3.6L15.6 5.5L15.2 7.5L14.6 9.5L13.7 11.6L12.3 13.6L10.3 15.2L7.7 15.9L4.9 15.5L2.2 14.2L0.0 12.3L-1.6 10.5L-2.9 9.2L-4.2 8.7L-6.1 9.0L-8.7 9.7L-11.8 10.0L-14.9 9.7L-17.5 8.6L-19.1 6.7L-19.6 4.5L-19.3 2.2L-18.4 0.0L-17.4 -1.9L-16.2 -3.7L-15.0 -5.3L-13.5 -6.6L-11.7 -7.6L-9.7 -8.3L-7.9 -8.7L-6.3 -9.2L-5.0 -10.2L-3.7 -11.7L-2.1 -13.7L-0.0 -15.9L2.7 -17.5L5.7 -18.1L8.4 -17.3L10.4 -15.4L11.5 -12.7L11.6 -9.9L11.3 -7.4L11.2 -5.5L11.5 -4.1L12.4 -2.8L13.6 -1.5L14.7 -0.0Z" fill="none" stroke="#19e6ff" stroke-opacity="0.39" stroke-width="1"/><path d="M23.4 0.0L25.3 2.8L26.1 5.9L25.7 9.1L24.4 12.0L22.6 14.8L20.4 17.3L17.7 19.6L14.5 21.3L10.7 22.1L6.8 21.5L3.1 19.9L0.0 17.5L-2.4 15.3L-4.4 13.9L-6.6 13.6L-9.8 14.4L-14.0 15.5L-19.0 16.1L-23.9 15.6L-27.7 13.6L-29.8 10.5L-30.0 6.8L-28.5 3.2L-26.3 0.0L-24.0 -2.7L-21.9 -5.0L-20.2 -7.1L-18.6 -9.1L-16.8 -11.0L-14.7 -12.5L-12.5 -13.9L-10.4 -15.3L-8.3 -17.0L-6.1 -19.3L-3.4 -22.0L-0.0 -24.7L4.1 -26.6L8.5 -27.0L12.4 -25.4L15.1 -22.2L16.3 -18.0L16.2 -13.8L15.6 -10.2L15.3 -7.5L16.1 -5.7L18.1 -4.1L20.8 -2.3L23.4 -0.0Z" fill="none" stroke="#ffb800" stroke-opacity="0.48" stroke-width="1"/><path d="M33.5 0.0L36.7 4.1L37.9 8.6L36.8 13.0L34.1 16.7L30.5 19.9L26.4 22.4L22.2 24.6L17.7 26.1L13.1 26.8L8.3 26.4L3.9 25.0L0.0 22.8L-3.2 20.7L-6.2 19.5L-9.6 19.6L-14.1 20.8L-20.0 22.2L-26.8 22.8L-33.3 21.7L-38.1 18.7L-40.3 14.2L-39.7 9.0L-36.7 4.1L-32.8 0.0L-29.0 -3.2L-26.2 -6.0L-24.4 -8.6L-23.3 -11.4L-22.1 -14.4L-20.5 -17.4L-18.2 -20.1L-15.4 -22.7L-12.3 -25.2L-8.8 -28.0L-4.8 -30.9L-0.0 -33.5L5.4 -35.1L11.0 -34.9L15.8 -32.4L19.0 -28.0L20.3 -22.5L20.1 -17.1L19.3 -12.6L19.3 -9.5L20.9 -7.4L24.4 -5.6L29.0 -3.2L33.5 -0.0Z" fill="none" stroke="#19e6ff" stroke-opacity="0.56" stroke-width="1"/><path d="M45.0 0.0L49.3 5.5L50.5 11.5L48.3 17.0L43.6 21.4L37.6 24.5L31.3 26.6L25.5 28.2L20.0 29.5L14.8 30.4L9.6 30.6L4.6 29.9L0.0 28.7L-4.2 27.4L-8.4 26.7L-13.2 27.1L-19.2 28.3L-26.7 29.6L-34.9 29.7L-42.5 27.7L-47.9 23.5L-49.9 17.6L-48.1 11.0L-43.6 4.9L-37.9 0.0L-32.8 -3.7L-29.6 -6.7L-28.3 -9.9L-28.2 -13.8L-28.2 -18.4L-27.2 -23.2L-25.0 -27.7L-21.4 -31.5L-16.9 -34.7L-11.8 -37.5L-6.2 -39.9L-0.0 -41.7L6.6 -42.4L13.0 -41.3L18.5 -38.0L22.2 -32.7L23.8 -26.3L23.7 -20.1L23.2 -15.1L23.8 -11.7L26.7 -9.4L31.9 -7.3L38.6 -4.3L45.0 -0.0Z" fill="none" stroke="#ffb800" stroke-opacity="0.65" stroke-width="1"/><path d="M57.5 0.0L62.5 7.0L63.1 14.4L59.3 20.9L52.2 25.6L43.6 28.4L35.1 29.8L27.7 30.7L21.5 31.7L16.1 33.1L10.9 34.5L5.5 35.5L0.0 35.8L-5.5 35.8L-11.3 35.7L-17.6 36.1L-25.0 36.9L-33.7 37.3L-42.8 36.4L-51.0 33.2L-56.4 27.7L-57.8 20.4L-55.0 12.5L-49.0 5.5L-42.0 0.0L-36.1 -4.0L-32.9 -7.5L-32.5 -11.5L-33.9 -16.6L-35.3 -23.0L-35.2 -30.0L-32.8 -36.4L-28.2 -41.5L-21.9 -45.0L-14.9 -47.2L-7.5 -48.3L-0.0 -48.7L7.4 -48.0L14.5 -45.9L20.5 -42.0L24.7 -36.3L26.9 -29.8L27.5 -23.4L27.9 -18.2L29.7 -14.6L34.0 -12.0L41.1 -9.4L49.6 -5.5L57.5 -0.0Z" fill="none" stroke="#19e6ff" stroke-opacity="0.73" stroke-width="1"/><path d="M70.2 0.0L75.2 8.4L74.9 17.1L69.1 24.3L59.4 29.2L48.2 31.4L37.6 32.0L29.1 32.2L22.6 33.2L17.3 35.6L12.2 38.8L6.5 42.1L0.0 44.6L-7.1 46.0L-14.7 46.5L-22.6 46.4L-31.3 46.0L-40.5 44.9L-49.9 42.4L-57.9 37.8L-63.0 30.9L-63.8 22.5L-60.2 13.7L-53.4 6.0L-45.8 0.0L-39.8 -4.5L-37.2 -8.5L-38.0 -13.4L-41.0 -20.1L-43.8 -28.6L-44.4 -37.7L-41.6 -46.0L-35.4 -52.1L-27.1 -55.5L-17.8 -56.4L-8.6 -55.6L-0.0 -54.0L8.0 -51.7L15.4 -48.7L21.8 -44.6L26.7 -39.4L30.1 -33.3L32.1 -27.3L34.1 -22.2L37.5 -18.4L43.3 -15.3L51.8 -11.8L61.6 -6.9L70.2 -0.0Z" fill="none" stroke="#ffb800" stroke-opacity="0.82" stroke-width="1.4"/><path d="M-8 0H8M0 -8V8" stroke="#d7dde3" opacity=".7"/></g><polygon points="-44,-60 60,-60 60,44 44,60 -60,60 -60,-44" fill="none" stroke="#ffb800" stroke-opacity=".7"/><text x="-50" y="-44" font-size="11" fill="#ffb800">05</text><text y="82" text-anchor="middle" font-size="12" fill="#d7dde3" letter-spacing="1">TILES</text></g></g><g transform="translate(790 395) rotate(22)"><g class="fl" style="animation-delay:-4.0s"><clipPath id="arc5"><polygon points="-44,-60 60,-60 60,44 44,60 -60,60 -60,-44"/></clipPath><polygon points="-44,-60 60,-60 60,44 44,60 -60,60 -60,-44" fill="#0b0d0f"/><g clip-path="url(#arc5)"><rect x="-60" y="-60" width="120" height="120" fill="url(#arsc)"/><path d="M10.0 0.0L10.6 1.2L10.4 2.4L9.4 3.3L8.0 3.9L6.5 4.2L5.2 4.4L4.3 4.7L3.5 5.2L2.8 5.8L2.0 6.4L1.0 6.7L0.0 6.7L-1.0 6.5L-1.9 6.1L-2.9 5.9L-4.0 5.9L-5.4 5.9L-6.9 5.9L-8.3 5.4L-9.2 4.5L-9.4 3.3L-8.8 2.0L-7.7 0.9L-6.6 0.0L-5.8 -0.6L-5.6 -1.3L-5.9 -2.1L-6.4 -3.1L-6.7 -4.4L-6.5 -5.5L-5.8 -6.5L-4.7 -7.0L-3.5 -7.2L-2.3 -7.2L-1.1 -7.2L-0.0 -7.4L1.2 -7.5L2.4 -7.5L3.5 -7.1L4.3 -6.3L4.7 -5.2L4.8 -4.1L4.9 -3.2L5.1 -2.5L5.9 -2.1L7.2 -1.6L8.7 -1.0L10.0 -0.0Z" fill="none" stroke="#ffb800" stroke-opacity="0.31" stroke-width="1"/><path d="M20.3 0.0L21.6 2.4L21.0 4.8L18.9 6.6L15.7 7.7L12.4 8.1L9.7 8.2L7.8 8.6L6.5 9.6L5.4 11.0L4.0 12.6L2.1 13.8L0.0 14.3L-2.2 14.1L-4.2 13.5L-6.2 12.8L-8.3 12.3L-10.8 11.9L-13.4 11.4L-15.9 10.4L-17.6 8.7L-18.0 6.3L-17.0 3.9L-15.0 1.7L-12.8 0.0L-11.3 -1.3L-11.0 -2.5L-11.7 -4.1L-13.0 -6.4L-13.9 -9.0L-13.7 -11.7L-12.4 -13.7L-10.1 -14.8L-7.3 -15.0L-4.6 -14.6L-2.2 -14.1L-0.0 -13.8L2.1 -13.8L4.3 -13.7L6.5 -13.2L8.2 -12.1L9.4 -10.4L10.0 -8.5L10.4 -6.8L11.1 -5.4L12.6 -4.4L15.0 -3.4L17.9 -2.0L20.3 -0.0Z" fill="none" stroke="#19e6ff" stroke-opacity="0.39" stroke-width="1"/><path d="M30.5 0.0L32.1 3.6L31.2 7.1L27.8 9.8L23.0 11.3L17.9 11.6L13.7 11.6L10.8 12.0L9.1 13.4L7.8 16.0L6.0 18.9L3.3 21.6L0.0 23.0L-3.6 23.1L-6.9 22.0L-10.0 20.4L-12.9 18.9L-15.9 17.7L-19.3 16.4L-22.5 14.7L-24.9 12.2L-25.7 9.0L-24.6 5.6L-22.1 2.5L-19.2 0.0L-17.2 -1.9L-16.9 -3.8L-18.1 -6.4L-20.1 -9.9L-21.6 -14.1L-21.5 -18.3L-19.4 -21.5L-15.7 -23.2L-11.3 -23.1L-6.9 -21.9L-3.2 -20.3L-0.0 -19.3L2.9 -18.8L5.9 -18.8L9.1 -18.6L12.0 -17.7L14.3 -15.9L15.9 -13.5L16.9 -11.0L18.2 -8.9L20.3 -7.1L23.5 -5.3L27.2 -3.0L30.5 -0.0Z" fill="none" stroke="#ffb800" stroke-opacity="0.48" stroke-width="1"/><path d="M39.9 0.0L41.5 4.6L40.2 9.2L35.9 12.6L29.6 14.5L22.9 15.0L17.4 14.8L13.8 15.3L11.8 17.3L10.3 21.0L8.1 25.7L4.6 30.0L0.0 32.7L-5.1 33.0L-9.9 31.4L-13.9 28.6L-17.3 25.5L-20.6 22.9L-24.2 20.6L-27.8 18.1L-30.8 15.1L-32.3 11.4L-31.7 7.2L-29.4 3.3L-26.4 0.0L-24.2 -2.7L-23.8 -5.4L-25.3 -8.9L-27.8 -13.6L-29.7 -19.3L-29.5 -25.0L-26.6 -29.4L-21.4 -31.5L-15.1 -31.0L-9.0 -28.7L-4.0 -25.9L-0.0 -23.7L3.5 -22.8L7.3 -23.0L11.4 -23.5L15.8 -23.3L19.7 -21.8L22.7 -19.3L24.8 -16.2L26.6 -13.1L29.0 -10.2L32.3 -7.4L36.4 -4.1L39.9 -0.0Z" fill="none" stroke="#19e6ff" stroke-opacity="0.56" stroke-width="1"/><path d="M48.0 0.0L49.4 5.5L47.9 10.9L43.0 15.1L35.8 17.5L28.0 18.2L21.4 18.2L17.1 18.9L14.7 21.7L13.0 26.7L10.4 33.1L6.1 39.1L0.0 43.0L-6.8 43.7L-13.0 41.2L-17.9 36.8L-21.6 31.8L-24.7 27.3L-28.0 23.8L-31.8 20.7L-35.5 17.4L-38.1 13.4L-38.7 8.8L-37.4 4.2L-34.9 0.0L-32.7 -3.7L-32.2 -7.3L-33.6 -11.8L-36.0 -17.7L-37.8 -24.6L-37.2 -31.6L-33.3 -36.9L-26.7 -39.3L-18.7 -38.4L-11.0 -34.9L-4.8 -30.7L-0.0 -27.4L4.0 -26.1L8.4 -26.8L13.8 -28.3L19.9 -29.2L25.8 -28.6L30.6 -26.0L34.0 -22.2L36.3 -17.8L38.5 -13.5L41.3 -9.4L44.8 -5.0L48.0 -0.0Z" fill="none" stroke="#ffb800" stroke-opacity="0.65" stroke-width="1"/><path d="M54.3 0.0L55.5 6.2L53.9 12.3L49.1 17.3L41.7 20.5L33.4 21.8L26.1 22.2L21.2 23.5L18.3 27.0L16.2 33.2L13.0 41.1L7.5 48.7L0.0 53.6L-8.4 54.4L-16.1 51.0L-21.8 44.6L-25.4 37.4L-28.0 31.0L-30.8 26.2L-34.6 22.6L-39.2 19.2L-43.5 15.3L-46.2 10.5L-46.6 5.2L-45.1 0.0L-43.1 -4.8L-42.1 -9.6L-42.8 -15.1L-44.4 -21.8L-45.5 -29.7L-44.2 -37.5L-39.3 -43.6L-31.4 -46.2L-21.9 -44.9L-12.8 -40.5L-5.4 -35.1L-0.0 -30.9L4.5 -29.4L9.7 -30.7L16.3 -33.4L24.3 -35.8L32.6 -36.1L39.5 -33.6L44.3 -28.9L46.9 -23.0L48.3 -17.0L49.9 -11.4L52.0 -5.8L54.3 -0.0Z" fill="none" stroke="#19e6ff" stroke-opacity="0.73" stroke-width="1"/><path d="M58.8 0.0L59.6 6.7L58.5 13.3L54.6 19.2L47.8 23.5L39.6 25.9L32.0 27.2L26.4 29.2L22.7 33.5L19.8 40.5L15.6 49.6L9.0 58.2L0.0 63.9L-10.0 64.5L-18.9 60.0L-25.2 51.8L-28.7 42.3L-30.7 34.0L-32.9 27.9L-36.8 24.0L-42.6 20.9L-49.1 17.3L-54.4 12.4L-57.2 6.4L-57.2 0.0L-55.4 -6.2L-53.5 -12.2L-52.6 -18.5L-52.7 -25.8L-52.4 -34.2L-50.0 -42.5L-44.2 -49.0L-35.3 -51.9L-24.6 -50.6L-14.4 -45.7L-6.1 -39.5L-0.0 -34.7L5.1 -33.2L11.1 -35.2L19.2 -39.3L29.3 -43.1L40.0 -44.3L49.2 -41.8L55.3 -36.0L57.9 -28.4L58.1 -20.5L57.6 -13.1L57.8 -6.5L58.8 -0.0Z" fill="none" stroke="#ffb800" stroke-opacity="0.82" stroke-width="1.4"/><path d="M-8 0H8M0 -8V8" stroke="#d7dde3" opacity=".7"/></g><polygon points="-44,-60 60,-60 60,44 44,60 -60,60 -60,-44" fill="none" stroke="#19e6ff" stroke-opacity=".7"/><text x="-50" y="-44" font-size="11" fill="#ffb800">06</text><text y="82" text-anchor="middle" font-size="12" fill="#d7dde3" letter-spacing="1">KABADIWALA</text></g></g><g filter="url(#argl)" fill="#ffb800" shape-rendering="crispEdges"><rect x="275" y="232" width="6" height="6"/><rect x="282" y="232" width="6" height="6"/><rect x="289" y="232" width="6" height="6"/><rect x="296" y="232" width="6" height="6"/><rect x="275" y="239" width="6" height="6"/><rect x="303" y="239" width="6" height="6"/><rect x="275" y="246" width="6" height="6"/><rect x="282" y="246" width="6" height="6"/><rect x="289" y="246" width="6" height="6"/><rect x="296" y="246" width="6" height="6"/><rect x="275" y="253" width="6" height="6"/><rect x="303" y="253" width="6" height="6"/><rect x="275" y="260" width="6" height="6"/><rect x="282" y="260" width="6" height="6"/><rect x="289" y="260" width="6" height="6"/><rect x="296" y="260" width="6" height="6"/><rect x="317" y="232" width="6" height="6"/><rect x="345" y="232" width="6" height="6"/><rect x="317" y="239" width="6" height="6"/><rect x="345" y="239" width="6" height="6"/><rect x="317" y="246" width="6" height="6"/><rect x="345" y="246" width="6" height="6"/><rect x="317" y="253" width="6" height="6"/><rect x="345" y="253" width="6" height="6"/><rect x="324" y="260" width="6" height="6"/><rect x="331" y="260" width="6" height="6"/><rect x="338" y="260" width="6" height="6"/><rect x="359" y="232" width="6" height="6"/><rect x="366" y="232" width="6" height="6"/><rect x="373" y="232" width="6" height="6"/><rect x="380" y="232" width="6" height="6"/><rect x="387" y="232" width="6" height="6"/><rect x="373" y="239" width="6" height="6"/><rect x="373" y="246" width="6" height="6"/><rect x="373" y="253" width="6" height="6"/><rect x="359" y="260" width="6" height="6"/><rect x="366" y="260" width="6" height="6"/><rect x="373" y="260" width="6" height="6"/><rect x="380" y="260" width="6" height="6"/><rect x="387" y="260" width="6" height="6"/><rect x="401" y="232" width="6" height="6"/><rect x="401" y="239" width="6" height="6"/><rect x="401" y="246" width="6" height="6"/><rect x="401" y="253" width="6" height="6"/><rect x="401" y="260" width="6" height="6"/><rect x="408" y="260" width="6" height="6"/><rect x="415" y="260" width="6" height="6"/><rect x="422" y="260" width="6" height="6"/><rect x="429" y="260" width="6" height="6"/><rect x="443" y="232" width="6" height="6"/><rect x="450" y="232" width="6" height="6"/><rect x="457" y="232" width="6" height="6"/><rect x="464" y="232" width="6" height="6"/><rect x="443" y="239" width="6" height="6"/><rect x="471" y="239" width="6" height="6"/><rect x="443" y="246" width="6" height="6"/><rect x="471" y="246" width="6" height="6"/><rect x="443" y="253" width="6" height="6"/><rect x="471" y="253" width="6" height="6"/><rect x="443" y="260" width="6" height="6"/><rect x="450" y="260" width="6" height="6"/><rect x="457" y="260" width="6" height="6"/><rect x="464" y="260" width="6" height="6"/><rect x="506" y="232" width="6" height="6"/><rect x="506" y="239" width="6" height="6"/><rect x="506" y="246" width="6" height="6"/><rect x="506" y="253" width="6" height="6"/><rect x="506" y="260" width="6" height="6"/><rect x="513" y="260" width="6" height="6"/><rect x="520" y="260" width="6" height="6"/><rect x="527" y="260" width="6" height="6"/><rect x="534" y="260" width="6" height="6"/><rect x="555" y="232" width="6" height="6"/><rect x="562" y="232" width="6" height="6"/><rect x="569" y="232" width="6" height="6"/><rect x="548" y="239" width="6" height="6"/><rect x="576" y="239" width="6" height="6"/><rect x="548" y="246" width="6" height="6"/><rect x="576" y="246" width="6" height="6"/><rect x="548" y="253" width="6" height="6"/><rect x="576" y="253" width="6" height="6"/><rect x="555" y="260" width="6" height="6"/><rect x="562" y="260" width="6" height="6"/><rect x="569" y="260" width="6" height="6"/><rect x="597" y="232" width="6" height="6"/><rect x="604" y="232" width="6" height="6"/><rect x="611" y="232" width="6" height="6"/><rect x="618" y="232" width="6" height="6"/><rect x="590" y="239" width="6" height="6"/><rect x="590" y="246" width="6" height="6"/><rect x="611" y="246" width="6" height="6"/><rect x="618" y="246" width="6" height="6"/><rect x="590" y="253" width="6" height="6"/><rect x="618" y="253" width="6" height="6"/><rect x="597" y="260" width="6" height="6"/><rect x="604" y="260" width="6" height="6"/><rect x="611" y="260" width="6" height="6"/><rect x="618" y="260" width="6" height="6"/></g><text x="450" y="300" text-anchor="middle" font-size="13" fill="#6b747d" letter-spacing="2">6 MODULES ONLINE // SELECT TARGET BELOW</text><polygon points="353,322 555,322 555,348 547,356 345,356 345,330" fill="none" stroke="#ffb800"/><text x="450" y="344" text-anchor="middle" font-size="13" fill="#ffb800" letter-spacing="2" class="pl">[ OPEN REPOSITORIES ]</text></svg>