<svg xmlns="http://www.w3.org/2000/svg" viewBox="0 0 450 48" width="450" height="48" role="img" aria-label="featured project cartridge"><title>featured project cartridge</title><g transform="scale(3)" shape-rendering="crispEdges">
<!-- cartridge -->
<g id="cartridge"><path fill="#0a0c0b" d="M3 0h144v1h-144zM65 1h1v2h-1zM85 1h1v2h-1zM1 2h1v1h-1zM66 2h19v1h-19zM148 2h1v1h-1zM0 3h1v10h-1zM149 3h1v10h-1zM6 5h115v1h-115zM6 6h1v6h-1zM120 6h1v6h-1zM7 11h113v1h-113zM1 13h1v1h-1zM148 13h1v1h-1zM3 15h144v1h-144z"/><path fill="#f5a86a" d="M2 1h63v1h-63zM86 1h62v1h-62z"/><path fill="#a8582a" d="M66 1h19v1h-19zM126 5h2v7h-2zM129 5h2v7h-2zM132 5h2v7h-2zM135 5h2v7h-2zM138 5h2v7h-2zM141 5h2v7h-2zM2 14h146v1h-146z"/><path fill="#e9873f" d="M2 2h63v3h-63zM86 2h62v3h-62zM1 3h1v10h-1zM65 3h21v2h-21zM148 3h1v10h-1zM2 5h4v9h-4zM121 5h5v9h-5zM128 5h1v9h-1zM131 5h1v9h-1zM134 5h1v9h-1zM137 5h1v9h-1zM140 5h1v9h-1zM143 5h5v9h-5zM10 6h5v1h-5zM16 6h5v1h-5zM23 6h3v1h-3zM28 6h5v1h-5zM34 6h1v4h-1zM38 6h1v4h-1zM40 6h4v1h-4zM46 6h5v1h-5zM52 6h4v1h-4zM65 6h4v1h-4zM71 6h3v1h-3zM76 6h4v1h-4zM82 6h5v1h-5zM88 6h4v1h-4zM94 6h5v1h-5zM100 6h4v1h-4zM107 6h4v1h-4zM112 6h5v1h-5zM10 7h1v4h-1zM16 7h1v4h-1zM22 7h1v4h-1zM26 7h1v4h-1zM30 7h1v4h-1zM40 7h1v4h-1zM44 7h1v1h-1zM46 7h1v4h-1zM52 7h1v4h-1zM56 7h1v3h-1zM64 7h1v3h-1zM70 7h1v4h-1zM74 7h1v4h-1zM76 7h1v4h-1zM80 7h1v1h-1zM84 7h1v4h-1zM88 7h1v4h-1zM92 7h1v1h-1zM96 7h1v4h-1zM100 7h1v4h-1zM104 7h1v3h-1zM106 7h1v3h-1zM112 7h1v4h-1zM11 8h3v1h-3zM17 8h3v1h-3zM23 8h3v1h-3zM41 8h3v1h-3zM47 8h3v1h-3zM71 8h3v1h-3zM77 8h3v1h-3zM89 8h3v1h-3zM109 8h2v1h-2zM113 8h3v1h-3zM42 9h1v1h-1zM78 9h1v1h-1zM90 9h1v1h-1zM110 9h1v2h-1zM17 10h4v1h-4zM35 10h3v1h-3zM43 10h1v1h-1zM47 10h4v1h-4zM53 10h3v1h-3zM65 10h4v1h-4zM79 10h1v1h-1zM91 10h1v1h-1zM94 10h2v1h-2zM97 10h2v1h-2zM101 10h3v1h-3zM107 10h3v1h-3zM113 10h4v1h-4zM6 12h115v2h-115zM126 12h2v2h-2zM129 12h2v2h-2zM132 12h2v2h-2zM135 12h2v2h-2zM138 12h2v2h-2zM141 12h2v2h-2z"/><path fill="#0a1018" d="M7 6h3v5h-3zM15 6h1v5h-1zM21 6h2v1h-2zM26 6h2v1h-2zM33 6h1v5h-1zM35 6h3v4h-3zM39 6h1v5h-1zM44 6h2v1h-2zM51 6h1v5h-1zM56 6h9v1h-9zM69 6h2v1h-2zM74 6h2v1h-2zM80 6h2v1h-2zM87 6h1v5h-1zM92 6h2v1h-2zM99 6h1v5h-1zM104 6h3v1h-3zM111 6h1v5h-1zM117 6h3v5h-3zM11 7h4v1h-4zM17 7h5v1h-5zM23 7h3v1h-3zM27 7h3v4h-3zM31 7h2v4h-2zM41 7h3v1h-3zM45 7h1v4h-1zM47 7h4v1h-4zM53 7h3v3h-3zM57 7h7v4h-7zM65 7h5v3h-5zM71 7h3v1h-3zM75 7h1v4h-1zM77 7h3v1h-3zM81 7h3v4h-3zM85 7h2v4h-2zM89 7h3v1h-3zM93 7h3v3h-3zM97 7h2v3h-2zM101 7h3v3h-3zM105 7h1v4h-1zM107 7h4v1h-4zM113 7h4v1h-4zM14 8h1v3h-1zM20 8h2v2h-2zM44 8h1v3h-1zM50 8h1v2h-1zM80 8h1v3h-1zM92 8h1v3h-1zM107 8h2v2h-2zM116 8h1v2h-1zM11 9h3v2h-3zM17 9h3v1h-3zM23 9h3v2h-3zM41 9h1v2h-1zM43 9h1v1h-1zM47 9h3v1h-3zM71 9h3v2h-3zM77 9h1v2h-1zM79 9h1v1h-1zM89 9h1v2h-1zM91 9h1v1h-1zM109 9h1v1h-1zM113 9h3v1h-3zM21 10h1v1h-1zM34 10h1v1h-1zM38 10h1v1h-1zM42 10h1v1h-1zM56 10h1v1h-1zM64 10h1v1h-1zM69 10h1v1h-1zM78 10h1v1h-1zM90 10h1v1h-1zM93 10h1v1h-1zM104 10h1v1h-1zM106 10h1v1h-1z"/></g>
</g></svg>
