<svg xmlns="http://www.w3.org/2000/svg" viewBox="0 0 900 350" font-family="'Courier New',Consolas,monospace"><style>.bl{animation:bl 1.2s steps(1) infinite}@keyframes bl{50%{opacity:0}}.fl{animation:fl 5s ease-in-out infinite}@keyframes fl{50%{transform:translateY(-8px)}}.pl{animation:pl 2.4s ease-in-out infinite}@keyframes pl{50%{opacity:.5}}</style><defs><pattern id="cmhz" width="12" height="12" patternUnits="userSpaceOnUse" patternTransform="rotate(45)"><rect width="6" height="12" fill="#ffb800"/></pattern><pattern id="cmsc" width="4" height="4" patternUnits="userSpaceOnUse"><rect width="4" height="1" fill="#fff" opacity=".04"/></pattern><filter id="cmgl" x="-30%" y="-30%" width="160%" height="160%"><feGaussianBlur stdDeviation="3" result="b"/><feMerge><feMergeNode in="b"/><feMergeNode in="SourceGraphic"/></feMerge></filter></defs><polygon points="20.5,0.5 899.5,0.5 899.5,329.5 879.5,349.5 0.5,349.5 0.5,20.5" fill="#0f1113" stroke="#2b3036"/><polygon points="20.5,0.5 899.5,0.5 899.5,329.5 879.5,349.5 0.5,349.5 0.5,20.5" fill="url(#cmsc)"/><rect x="28" y="22" width="8" height="8" fill="#ffb800"/><text x="44" y="30" font-size="12" fill="#d7dde3" letter-spacing="2">CONTRIBUTION TERRAIN <tspan fill="#6b747d">// LAST 365 DAYS // SAKSHAMCOZYKUN</tspan></text><text x="872" y="30" font-size="11" fill="#6b747d" text-anchor="end">SIMULATED DATA</text><rect x="880" y="22" width="8" height="8" fill="#ff3b30" class="bl"/><path d="M28 42H872" stroke="#2b3036"/><text x="14" y="100" font-size="9" fill="#6b747d">MON</text><text x="14" y="132" font-size="9" fill="#6b747d">WED</text><text x="14" y="164" font-size="9" fill="#6b747d">FRI</text><text x="52" y="64" font-size="10" fill="#6b747d">SEP</text><text x="68" y="64" font-size="10" fill="#6b747d">OCT</text><text x="132" y="64" font-size="10" fill="#6b747d">NOV</text><text x="212" y="64" font-size="10" fill="#6b747d">DEC</text><text x="276" y="64" font-size="10" fill="#6b747d">JAN</text><text x="340" y="64" font-size="10" fill="#6b747d">FEB</text><text x="404" y="64" font-size="10" fill="#6b747d">MAR</text><text x="484" y="64" font-size="10" fill="#6b747d">APR</text><text x="548" y="64" font-size="10" fill="#6b747d">MAY</text><text x="628" y="64" font-size="10" fill="#6b747d">JUN</text><text x="692" y="64" font-size="10" fill="#6b747d">JUL</text><text x="756" y="64" font-size="10" fill="#6b747d">AUG</text><text x="836" y="64" font-size="10" fill="#6b747d">SEP</text><rect x="52" y="74" width="13" height="13" fill="#171a1d"/><rect x="52" y="90" width="13" height="13" fill="#171a1d"/><rect x="52" y="106" width="13" height="13" fill="#171a1d"/><rect x="52" y="122" width="13" height="13" fill="#e6a800"/><rect x="52" y="138" width="13" height="13" fill="#171a1d"/><rect x="52" y="154" width="13" height="13" fill="#171a1d"/><rect x="52" y="170" width="13" height="13" fill="#171a1d"/><rect x="68" y="74" width="13" height="13" fill="#171a1d"/><rect x="68" y="90" width="13" height="13" fill="#171a1d"/><rect x="68" y="106" width="13" height="13" fill="#171a1d"/><rect x="68" y="122" width="13" height="13" fill="#171a1d"/><rect x="68" y="138" width="13" height="13" fill="#9a7400"/><rect x="68" y="154" width="13" height="13" fill="#171a1d"/><rect x="68" y="170" width="13" height="13" fill="#171a1d"/><rect x="84" y="74" width="13" height="13" fill="#171a1d"/><rect x="84" y="90" width="13" height="13" fill="#171a1d"/><rect x="84" y="106" width="13" height="13" fill="#171a1d"/><rect x="84" y="122" width="13" height="13" fill="#4a3a00"/><rect x="84" y="138" width="13" height="13" fill="#171a1d"/><rect x="84" y="154" width="13" height="13" fill="#171a1d"/><rect x="84" y="170" width="13" height="13" fill="#9a7400"/><rect x="100" y="74" width="13" height="13" fill="#171a1d"/><rect x="100" y="90" width="13" height="13" fill="#171a1d"/><rect x="100" y="106" width="13" height="13" fill="#171a1d"/><rect x="100" y="122" width="13" height="13" fill="#171a1d"/><rect x="100" y="138" width="13" height="13" fill="#171a1d"/><rect x="100" y="154" width="13" height="13" fill="#171a1d"/><rect x="100" y="170" width="13" height="13" fill="#171a1d"/><rect x="116" y="74" width="13" height="13" fill="#171a1d"/><rect x="116" y="90" width="13" height="13" fill="#171a1d"/><rect x="116" y="106" width="13" height="13" fill="#171a1d"/><rect x="116" y="122" width="13" height="13" fill="#4a3a00"/><rect x="116" y="138" width="13" height="13" fill="#4a3a00"/><rect x="116" y="154" width="13" height="13" fill="#4a3a00"/><rect x="116" y="170" width="13" height="13" fill="#4a3a00"/><rect x="132" y="74" width="13" height="13" fill="#171a1d"/><rect x="132" y="90" width="13" height="13" fill="#171a1d"/><rect x="132" y="106" width="13" height="13" fill="#171a1d"/><rect x="132" y="122" width="13" height="13" fill="#171a1d"/><rect x="132" y="138" width="13" height="13" fill="#171a1d"/><rect x="132" y="154" width="13" height="13" fill="#171a1d"/><rect x="132" y="170" width="13" height="13" fill="#171a1d"/><rect x="148" y="74" width="13" height="13" fill="#9a7400"/><rect x="148" y="90" width="13" height="13" fill="#171a1d"/><rect x="148" y="106" width="13" height="13" fill="#171a1d"/><rect x="148" y="122" width="13" height="13" fill="#171a1d"/><rect x="148" y="138" width="13" height="13" fill="#171a1d"/><rect x="148" y="154" width="13" height="13" fill="#171a1d"/><rect x="148" y="170" width="13" height="13" fill="#171a1d"/><rect x="164" y="74" width="13" height="13" fill="#171a1d"/><rect x="164" y="90" width="13" height="13" fill="#171a1d"/><rect x="164" y="106" width="13" height="13" fill="#171a1d"/><rect x="164" y="122" width="13" height="13" fill="#171a1d"/><rect x="164" y="138" width="13" height="13" fill="#171a1d"/><rect x="164" y="154" width="13" height="13" fill="#4a3a00"/><rect x="164" y="170" width="13" height="13" fill="#171a1d"/><rect x="180" y="74" width="13" height="13" fill="#4a3a00"/><rect x="180" y="90" width="13" height="13" fill="#171a1d"/><rect x="180" y="106" width="13" height="13" fill="#9a7400"/><rect x="180" y="122" width="13" height="13" fill="#171a1d"/><rect x="180" y="138" width="13" height="13" fill="#171a1d"/><rect x="180" y="154" width="13" height="13" fill="#171a1d"/><rect x="180" y="170" width="13" height="13" fill="#171a1d"/><rect x="196" y="74" width="13" height="13" fill="#171a1d"/><rect x="196" y="90" width="13" height="13" fill="#171a1d"/><rect x="196" y="106" width="13" height="13" fill="#4a3a00"/><rect x="196" y="122" width="13" height="13" fill="#171a1d"/><rect x="196" y="138" width="13" height="13" fill="#171a1d"/><rect x="196" y="154" width="13" height="13" fill="#171a1d"/><rect x="196" y="170" width="13" height="13" fill="#171a1d"/><rect x="212" y="74" width="13" height="13" fill="#171a1d"/><rect x="212" y="90" width="13" height="13" fill="#171a1d"/><rect x="212" y="106" width="13" height="13" fill="#171a1d"/><rect x="212" y="122" width="13" height="13" fill="#171a1d"/><rect x="212" y="138" width="13" height="13" fill="#171a1d"/><rect x="212" y="154" width="13" height="13" fill="#171a1d"/><rect x="212" y="170" width="13" height="13" fill="#171a1d"/><rect x="228" y="74" width="13" height="13" fill="#171a1d"/><rect x="228" y="90" width="13" height="13" fill="#171a1d"/><rect x="228" y="106" width="13" height="13" fill="#171a1d"/><rect x="228" y="122" width="13" height="13" fill="#171a1d"/><rect x="228" y="138" width="13" height="13" fill="#171a1d"/><rect x="228" y="154" width="13" height="13" fill="#171a1d"/><rect x="228" y="170" width="13" height="13" fill="#171a1d"/><rect x="244" y="74" width="13" height="13" fill="#171a1d"/><rect x="244" y="90" width="13" height="13" fill="#9a7400"/><rect x="244" y="106" width="13" height="13" fill="#171a1d"/><rect x="244" y="122" width="13" height="13" fill="#171a1d"/><rect x="244" y="138" width="13" height="13" fill="#171a1d"/><rect x="244" y="154" width="13" height="13" fill="#171a1d"/><rect x="244" y="170" width="13" height="13" fill="#171a1d"/><rect x="260" y="74" width="13" height="13" fill="#4a3a00"/><rect x="260" y="90" width="13" height="13" fill="#171a1d"/><rect x="260" y="106" width="13" height="13" fill="#171a1d"/><rect x="260" y="122" width="13" height="13" fill="#171a1d"/><rect x="260" y="138" width="13" height="13" fill="#171a1d"/><rect x="260" y="154" width="13" height="13" fill="#e6a800"/><rect x="260" y="170" width="13" height="13" fill="#171a1d"/><rect x="276" y="74" width="13" height="13" fill="#e6a800"/><rect x="276" y="90" width="13" height="13" fill="#4a3a00"/><rect x="276" y="106" width="13" height="13" fill="#4a3a00"/><rect x="276" y="122" width="13" height="13" fill="#4a3a00"/><rect x="276" y="138" width="13" height="13" fill="#4a3a00"/><rect x="276" y="154" width="13" height="13" fill="#e6a800"/><rect x="276" y="170" width="13" height="13" fill="#4a3a00"/><rect x="292" y="74" width="13" height="13" fill="#4a3a00"/><rect x="292" y="90" width="13" height="13" fill="#4a3a00"/><rect x="292" y="106" width="13" height="13" fill="#171a1d"/><rect x="292" y="122" width="13" height="13" fill="#9a7400"/><rect x="292" y="138" width="13" height="13" fill="#171a1d"/><rect x="292" y="154" width="13" height="13" fill="#171a1d"/><rect x="292" y="170" width="13" height="13" fill="#171a1d"/><rect x="308" y="74" width="13" height="13" fill="#171a1d"/><rect x="308" y="90" width="13" height="13" fill="#171a1d"/><rect x="308" y="106" width="13" height="13" fill="#171a1d"/><rect x="308" y="122" width="13" height="13" fill="#e6a800"/><rect x="308" y="138" width="13" height="13" fill="#171a1d"/><rect x="308" y="154" width="13" height="13" fill="#171a1d"/><rect x="308" y="170" width="13" height="13" fill="#171a1d"/><rect x="324" y="74" width="13" height="13" fill="#171a1d"/><rect x="324" y="90" width="13" height="13" fill="#171a1d"/><rect x="324" y="106" width="13" height="13" fill="#171a1d"/><rect x="324" y="122" width="13" height="13" fill="#171a1d"/><rect x="324" y="138" width="13" height="13" fill="#171a1d"/><rect x="324" y="154" width="13" height="13" fill="#171a1d"/><rect x="324" y="170" width="13" height="13" fill="#171a1d"/><rect x="340" y="74" width="13" height="13" fill="#171a1d"/><rect x="340" y="90" width="13" height="13" fill="#171a1d"/><rect x="340" y="106" width="13" height="13" fill="#171a1d"/><rect x="340" y="122" width="13" height="13" fill="#171a1d"/><rect x="340" y="138" width="13" height="13" fill="#171a1d"/><rect x="340" y="154" width="13" height="13" fill="#ffd21a"/><rect x="340" y="170" width="13" height="13" fill="#171a1d"/><rect x="356" y="74" width="13" height="13" fill="#171a1d"/><rect x="356" y="90" width="13" height="13" fill="#171a1d"/><rect x="356" y="106" width="13" height="13" fill="#ffd21a"/><rect x="356" y="122" width="13" height="13" fill="#e6a800"/><rect x="356" y="138" width="13" height="13" fill="#9a7400"/><rect x="356" y="154" width="13" height="13" fill="#9a7400"/><rect x="356" y="170" width="13" height="13" fill="#4a3a00"/><rect x="372" y="74" width="13" height="13" fill="#ffd21a"/><rect x="372" y="90" width="13" height="13" fill="#9a7400"/><rect x="372" y="106" width="13" height="13" fill="#9a7400"/><rect x="372" y="122" width="13" height="13" fill="#e6a800"/><rect x="372" y="138" width="13" height="13" fill="#4a3a00"/><rect x="372" y="154" width="13" height="13" fill="#171a1d"/><rect x="372" y="170" width="13" height="13" fill="#4a3a00"/><rect x="388" y="74" width="13" height="13" fill="#171a1d"/><rect x="388" y="90" width="13" height="13" fill="#4a3a00"/><rect x="388" y="106" width="13" height="13" fill="#171a1d"/><rect x="388" y="122" width="13" height="13" fill="#171a1d"/><rect x="388" y="138" width="13" height="13" fill="#171a1d"/><rect x="388" y="154" width="13" height="13" fill="#171a1d"/><rect x="388" y="170" width="13" height="13" fill="#171a1d"/><rect x="404" y="74" width="13" height="13" fill="#171a1d"/><rect x="404" y="90" width="13" height="13" fill="#171a1d"/><rect x="404" y="106" width="13" height="13" fill="#171a1d"/><rect x="404" y="122" width="13" height="13" fill="#171a1d"/><rect x="404" y="138" width="13" height="13" fill="#171a1d"/><rect x="404" y="154" width="13" height="13" fill="#171a1d"/><rect x="404" y="170" width="13" height="13" fill="#171a1d"/><rect x="420" y="74" width="13" height="13" fill="#171a1d"/><rect x="420" y="90" width="13" height="13" fill="#171a1d"/><rect x="420" y="106" width="13" height="13" fill="#171a1d"/><rect x="420" y="122" width="13" height="13" fill="#171a1d"/><rect x="420" y="138" width="13" height="13" fill="#171a1d"/><rect x="420" y="154" width="13" height="13" fill="#171a1d"/><rect x="420" y="170" width="13" height="13" fill="#171a1d"/><rect x="436" y="74" width="13" height="13" fill="#171a1d"/><rect x="436" y="90" width="13" height="13" fill="#171a1d"/><rect x="436" y="106" width="13" height="13" fill="#171a1d"/><rect x="436" y="122" width="13" height="13" fill="#4a3a00"/><rect x="436" y="138" width="13" height="13" fill="#9a7400"/><rect x="436" y="154" width="13" height="13" fill="#4a3a00"/><rect x="436" y="170" width="13" height="13" fill="#4a3a00"/><rect x="452" y="74" width="13" height="13" fill="#171a1d"/><rect x="452" y="90" width="13" height="13" fill="#171a1d"/><rect x="452" y="106" width="13" height="13" fill="#4a3a00"/><rect x="452" y="122" width="13" height="13" fill="#171a1d"/><rect x="452" y="138" width="13" height="13" fill="#171a1d"/><rect x="452" y="154" width="13" height="13" fill="#4a3a00"/><rect x="452" y="170" width="13" height="13" fill="#171a1d"/><rect x="468" y="74" width="13" height="13" fill="#171a1d"/><rect x="468" y="90" width="13" height="13" fill="#171a1d"/><rect x="468" y="106" width="13" height="13" fill="#171a1d"/><rect x="468" y="122" width="13" height="13" fill="#4a3a00"/><rect x="468" y="138" width="13" height="13" fill="#171a1d"/><rect x="468" y="154" width="13" height="13" fill="#171a1d"/><rect x="468" y="170" width="13" height="13" fill="#4a3a00"/><rect x="484" y="74" width="13" height="13" fill="#171a1d"/><rect x="484" y="90" width="13" height="13" fill="#171a1d"/><rect x="484" y="106" width="13" height="13" fill="#171a1d"/><rect x="484" y="122" width="13" height="13" fill="#171a1d"/><rect x="484" y="138" width="13" height="13" fill="#171a1d"/><rect x="484" y="154" width="13" height="13" fill="#e6a800"/><rect x="484" y="170" width="13" height="13" fill="#171a1d"/><rect x="500" y="74" width="13" height="13" fill="#171a1d"/><rect x="500" y="90" width="13" height="13" fill="#171a1d"/><rect x="500" y="106" width="13" height="13" fill="#171a1d"/><rect x="500" y="122" width="13" height="13" fill="#171a1d"/><rect x="500" y="138" width="13" height="13" fill="#171a1d"/><rect x="500" y="154" width="13" height="13" fill="#171a1d"/><rect x="500" y="170" width="13" height="13" fill="#171a1d"/><rect x="516" y="74" width="13" height="13" fill="#171a1d"/><rect x="516" y="90" width="13" height="13" fill="#171a1d"/><rect x="516" y="106" width="13" height="13" fill="#171a1d"/><rect x="516" y="122" width="13" height="13" fill="#171a1d"/><rect x="516" y="138" width="13" height="13" fill="#171a1d"/><rect x="516" y="154" width="13" height="13" fill="#171a1d"/><rect x="516" y="170" width="13" height="13" fill="#171a1d"/><rect x="532" y="74" width="13" height="13" fill="#171a1d"/><rect x="532" y="90" width="13" height="13" fill="#171a1d"/><rect x="532" y="106" width="13" height="13" fill="#171a1d"/><rect x="532" y="122" width="13" height="13" fill="#171a1d"/><rect x="532" y="138" width="13" height="13" fill="#171a1d"/><rect x="532" y="154" width="13" height="13" fill="#4a3a00"/><rect x="532" y="170" width="13" height="13" fill="#171a1d"/><rect x="548" y="74" width="13" height="13" fill="#171a1d"/><rect x="548" y="90" width="13" height="13" fill="#171a1d"/><rect x="548" y="106" width="13" height="13" fill="#171a1d"/><rect x="548" y="122" width="13" height="13" fill="#171a1d"/><rect x="548" y="138" width="13" height="13" fill="#171a1d"/><rect x="548" y="154" width="13" height="13" fill="#4a3a00"/><rect x="548" y="170" width="13" height="13" fill="#171a1d"/><rect x="564" y="74" width="13" height="13" fill="#171a1d"/><rect x="564" y="90" width="13" height="13" fill="#171a1d"/><rect x="564" y="106" width="13" height="13" fill="#171a1d"/><rect x="564" y="122" width="13" height="13" fill="#171a1d"/><rect x="564" y="138" width="13" height="13" fill="#171a1d"/><rect x="564" y="154" width="13" height="13" fill="#171a1d"/><rect x="564" y="170" width="13" height="13" fill="#e6a800"/><rect x="580" y="74" width="13" height="13" fill="#9a7400"/><rect x="580" y="90" width="13" height="13" fill="#4a3a00"/><rect x="580" y="106" width="13" height="13" fill="#9a7400"/><rect x="580" y="122" width="13" height="13" fill="#4a3a00"/><rect x="580" y="138" width="13" height="13" fill="#e6a800"/><rect x="580" y="154" width="13" height="13" fill="#4a3a00"/><rect x="580" y="170" width="13" height="13" fill="#4a3a00"/><rect x="596" y="74" width="13" height="13" fill="#4a3a00"/><rect x="596" y="90" width="13" height="13" fill="#ffd21a"/><rect x="596" y="106" width="13" height="13" fill="#171a1d"/><rect x="596" y="122" width="13" height="13" fill="#171a1d"/><rect x="596" y="138" width="13" height="13" fill="#171a1d"/><rect x="596" y="154" width="13" height="13" fill="#171a1d"/><rect x="596" y="170" width="13" height="13" fill="#171a1d"/><rect x="612" y="74" width="13" height="13" fill="#171a1d"/><rect x="612" y="90" width="13" height="13" fill="#171a1d"/><rect x="612" y="106" width="13" height="13" fill="#171a1d"/><rect x="612" y="122" width="13" height="13" fill="#171a1d"/><rect x="612" y="138" width="13" height="13" fill="#171a1d"/><rect x="612" y="154" width="13" height="13" fill="#171a1d"/><rect x="612" y="170" width="13" height="13" fill="#171a1d"/><rect x="628" y="74" width="13" height="13" fill="#171a1d"/><rect x="628" y="90" width="13" height="13" fill="#171a1d"/><rect x="628" y="106" width="13" height="13" fill="#171a1d"/><rect x="628" y="122" width="13" height="13" fill="#e6a800"/><rect x="628" y="138" width="13" height="13" fill="#171a1d"/><rect x="628" y="154" width="13" height="13" fill="#171a1d"/><rect x="628" y="170" width="13" height="13" fill="#171a1d"/><rect x="644" y="74" width="13" height="13" fill="#171a1d"/><rect x="644" y="90" width="13" height="13" fill="#171a1d"/><rect x="644" y="106" width="13" height="13" fill="#171a1d"/><rect x="644" y="122" width="13" height="13" fill="#171a1d"/><rect x="644" y="138" width="13" height="13" fill="#171a1d"/><rect x="644" y="154" width="13" height="13" fill="#171a1d"/><rect x="644" y="170" width="13" height="13" fill="#171a1d"/><rect x="660" y="74" width="13" height="13" fill="#171a1d"/><rect x="660" y="90" width="13" height="13" fill="#171a1d"/><rect x="660" y="106" width="13" height="13" fill="#171a1d"/><rect x="660" y="122" width="13" height="13" fill="#171a1d"/><rect x="660" y="138" width="13" height="13" fill="#171a1d"/><rect x="660" y="154" width="13" height="13" fill="#9a7400"/><rect x="660" y="170" width="13" height="13" fill="#171a1d"/><rect x="676" y="74" width="13" height="13" fill="#171a1d"/><rect x="676" y="90" width="13" height="13" fill="#171a1d"/><rect x="676" y="106" width="13" height="13" fill="#171a1d"/><rect x="676" y="122" width="13" height="13" fill="#171a1d"/><rect x="676" y="138" width="13" height="13" fill="#171a1d"/><rect x="676" y="154" width="13" height="13" fill="#4a3a00"/><rect x="676" y="170" width="13" height="13" fill="#171a1d"/><rect x="692" y="74" width="13" height="13" fill="#171a1d"/><rect x="692" y="90" width="13" height="13" fill="#171a1d"/><rect x="692" y="106" width="13" height="13" fill="#171a1d"/><rect x="692" y="122" width="13" height="13" fill="#171a1d"/><rect x="692" y="138" width="13" height="13" fill="#171a1d"/><rect x="692" y="154" width="13" height="13" fill="#ffd21a"/><rect x="692" y="170" width="13" height="13" fill="#4a3a00"/><rect x="708" y="74" width="13" height="13" fill="#4a3a00"/><rect x="708" y="90" width="13" height="13" fill="#9a7400"/><rect x="708" y="106" width="13" height="13" fill="#4a3a00"/><rect x="708" y="122" width="13" height="13" fill="#171a1d"/><rect x="708" y="138" width="13" height="13" fill="#171a1d"/><rect x="708" y="154" width="13" height="13" fill="#171a1d"/><rect x="708" y="170" width="13" height="13" fill="#171a1d"/><rect x="724" y="74" width="13" height="13" fill="#171a1d"/><rect x="724" y="90" width="13" height="13" fill="#171a1d"/><rect x="724" y="106" width="13" height="13" fill="#171a1d"/><rect x="724" y="122" width="13" height="13" fill="#4a3a00"/><rect x="724" y="138" width="13" height="13" fill="#171a1d"/><rect x="724" y="154" width="13" height="13" fill="#171a1d"/><rect x="724" y="170" width="13" height="13" fill="#171a1d"/><rect x="740" y="74" width="13" height="13" fill="#171a1d"/><rect x="740" y="90" width="13" height="13" fill="#171a1d"/><rect x="740" y="106" width="13" height="13" fill="#171a1d"/><rect x="740" y="122" width="13" height="13" fill="#171a1d"/><rect x="740" y="138" width="13" height="13" fill="#171a1d"/><rect x="740" y="154" width="13" height="13" fill="#171a1d"/><rect x="740" y="170" width="13" height="13" fill="#171a1d"/><rect x="756" y="74" width="13" height="13" fill="#171a1d"/><rect x="756" y="90" width="13" height="13" fill="#171a1d"/><rect x="756" y="106" width="13" height="13" fill="#171a1d"/><rect x="756" y="122" width="13" height="13" fill="#171a1d"/><rect x="756" y="138" width="13" height="13" fill="#171a1d"/><rect x="756" y="154" width="13" height="13" fill="#171a1d"/><rect x="756" y="170" width="13" height="13" fill="#171a1d"/><rect x="772" y="74" width="13" height="13" fill="#171a1d"/><rect x="772" y="90" width="13" height="13" fill="#ffd21a"/><rect x="772" y="106" width="13" height="13" fill="#4a3a00"/><rect x="772" y="122" width="13" height="13" fill="#4a3a00"/><rect x="772" y="138" width="13" height="13" fill="#ffd21a"/><rect x="772" y="154" width="13" height="13" fill="#4a3a00"/><rect x="772" y="170" width="13" height="13" fill="#171a1d"/><rect x="788" y="74" width="13" height="13" fill="#171a1d"/><rect x="788" y="90" width="13" height="13" fill="#171a1d"/><rect x="788" y="106" width="13" height="13" fill="#171a1d"/><rect x="788" y="122" width="13" height="13" fill="#171a1d"/><rect x="788" y="138" width="13" height="13" fill="#171a1d"/><rect x="788" y="154" width="13" height="13" fill="#171a1d"/><rect x="788" y="170" width="13" height="13" fill="#171a1d"/><rect x="804" y="74" width="13" height="13" fill="#9a7400"/><rect x="804" y="90" width="13" height="13" fill="#4a3a00"/><rect x="804" y="106" width="13" height="13" fill="#9a7400"/><rect x="804" y="122" width="13" height="13" fill="#9a7400"/><rect x="804" y="138" width="13" height="13" fill="#ffd21a"/><rect x="804" y="154" width="13" height="13" fill="#9a7400"/><rect x="804" y="170" width="13" height="13" fill="#4a3a00"/><rect x="820" y="74" width="13" height="13" fill="#4a3a00"/><rect x="820" y="90" width="13" height="13" fill="#171a1d"/><rect x="820" y="106" width="13" height="13" fill="#171a1d"/><rect x="820" y="122" width="13" height="13" fill="#171a1d"/><rect x="820" y="138" width="13" height="13" fill="#171a1d"/><rect x="820" y="154" width="13" height="13" fill="#171a1d"/><rect x="820" y="170" width="13" height="13" fill="#171a1d"/><rect x="836" y="74" width="13" height="13" fill="#171a1d"/><rect x="836" y="90" width="13" height="13" fill="#171a1d"/><rect x="836" y="106" width="13" height="13" fill="#171a1d"/><rect x="836" y="122" width="13" height="13" fill="#9a7400"/><rect x="836" y="138" width="13" height="13" fill="#171a1d"/><rect x="836" y="154" width="13" height="13" fill="#171a1d"/><rect x="836" y="170" width="13" height="13" fill="#171a1d"/><rect x="852" y="74" width="13" height="13" fill="#171a1d"/><rect x="852" y="90" width="13" height="13" fill="#171a1d"/><rect x="852" y="106" width="13" height="13" fill="#4a3a00"/><rect x="852" y="122" width="13" height="13" fill="#4a3a00"/><rect x="852" y="138" width="13" height="13" fill="#4a3a00"/><rect x="852" y="154" width="13" height="13" fill="#4a3a00"/><rect x="852" y="170" width="13" height="13" fill="#e6a800"/><rect x="868" y="74" width="13" height="13" fill="#171a1d"/><rect x="868" y="90" width="13" height="13" fill="#171a1d"/><rect x="868" y="106" width="13" height="13" fill="#171a1d"/><rect x="868" y="122" width="13" height="13" fill="#4a3a00"/><rect x="868" y="138" width="13" height="13" fill="#171a1d"/><rect x="868" y="154" width="13" height="13" fill="#171a1d"/><rect x="868" y="170" width="13" height="13" fill="#171a1d"/><rect x="884" y="74" width="13" height="13" fill="#9a7400"/><rect x="884" y="90" width="13" height="13" fill="#171a1d"/><rect x="884" y="106" width="13" height="13" fill="#e6a800"/><rect x="884" y="122" width="13" height="13" fill="#171a1d"/><rect x="884" y="138" width="13" height="13" fill="#171a1d"/><rect x="884" y="154" width="13" height="13" fill="#171a1d"/><g filter="url(#cmgl)" opacity=".8"><rect x="52" y="122" width="13" height="13" fill="#e6a800"/><rect x="260" y="154" width="13" height="13" fill="#e6a800"/><rect x="276" y="74" width="13" height="13" fill="#e6a800"/><rect x="276" y="154" width="13" height="13" fill="#e6a800"/><rect x="308" y="122" width="13" height="13" fill="#e6a800"/><rect x="340" y="154" width="13" height="13" fill="#ffd21a"/><rect x="356" y="106" width="13" height="13" fill="#ffd21a"/><rect x="356" y="122" width="13" height="13" fill="#e6a800"/><rect x="372" y="74" width="13" height="13" fill="#ffd21a"/><rect x="372" y="122" width="13" height="13" fill="#e6a800"/><rect x="484" y="154" width="13" height="13" fill="#e6a800"/><rect x="564" y="170" width="13" height="13" fill="#e6a800"/><rect x="580" y="138" width="13" height="13" fill="#e6a800"/><rect x="596" y="90" width="13" height="13" fill="#ffd21a"/><rect x="628" y="122" width="13" height="13" fill="#e6a800"/><rect x="692" y="154" width="13" height="13" fill="#ffd21a"/><rect x="772" y="90" width="13" height="13" fill="#ffd21a"/><rect x="772" y="138" width="13" height="13" fill="#ffd21a"/><rect x="804" y="138" width="13" height="13" fill="#ffd21a"/><rect x="852" y="170" width="13" height="13" fill="#e6a800"/><rect x="884" y="106" width="13" height="13" fill="#e6a800"/></g><clipPath id="cmgc"><rect x="52" y="72" width="848" height="112"/></clipPath><linearGradient id="cmsw" x1="0" x2="1"><stop offset="0" stop-color="#19e6ff" stop-opacity="0"/><stop offset="1" stop-color="#19e6ff" stop-opacity=".28"/></linearGradient><g clip-path="url(#cmgc)"><g><animateTransform attributeName="transform" type="translate" from="0 0" to="918 0" dur="7s" repeatCount="indefinite"/><rect x="-18" y="72" width="70" height="112" fill="url(#cmsw)"/><rect x="50" y="72" width="2" height="112" fill="#19e6ff"/></g></g><rect class="bl" x="882" y="152" width="17" height="17" fill="none" stroke="#19e6ff" stroke-width="1.5"/><text x="750" y="204" font-size="9" fill="#6b747d">LESS</text><rect x="782" y="196" width="11" height="11" fill="#171a1d"/><rect x="798" y="196" width="11" height="11" fill="#4a3a00"/><rect x="814" y="196" width="11" height="11" fill="#9a7400"/><rect x="830" y="196" width="11" height="11" fill="#e6a800"/><rect x="846" y="196" width="11" height="11" fill="#ffd21a"/><text x="866" y="204" font-size="9" fill="#6b747d">MORE</text><polygon points="38,218 146,218 146,308 136,318 28,318 28,228" fill="#16191c" stroke="#2b3036"/><rect x="28" y="218" width="118" height="3" fill="#ffb800"/><g fill="#ffb800" shape-rendering="crispEdges"><rect x="40" y="242" width="4" height="4"/><rect x="45" y="242" width="4" height="4"/><rect x="50" y="242" width="4" height="4"/><rect x="55" y="242" width="4" height="4"/><rect x="60" y="247" width="4" height="4"/><rect x="45" y="252" width="4" height="4"/><rect x="50" y="252" width="4" height="4"/><rect x="55" y="252" width="4" height="4"/><rect x="40" y="257" width="4" height="4"/><rect x="40" y="262" width="4" height="4"/><rect x="45" y="262" width="4" height="4"/><rect x="50" y="262" width="4" height="4"/><rect x="55" y="262" width="4" height="4"/><rect x="60" y="262" width="4" height="4"/><rect x="70" y="242" width="4" height="4"/><rect x="75" y="242" width="4" height="4"/><rect x="80" y="242" width="4" height="4"/><rect x="85" y="242" width="4" height="4"/><rect x="90" y="242" width="4" height="4"/><rect x="90" y="247" width="4" height="4"/><rect x="85" y="252" width="4" height="4"/><rect x="80" y="257" width="4" height="4"/><rect x="80" y="262" width="4" height="4"/><rect x="105" y="242" width="4" height="4"/><rect x="110" y="242" width="4" height="4"/><rect x="115" y="242" width="4" height="4"/><rect x="100" y="247" width="4" height="4"/><rect x="100" y="252" width="4" height="4"/><rect x="105" y="252" width="4" height="4"/><rect x="110" y="252" width="4" height="4"/><rect x="115" y="252" width="4" height="4"/><rect x="100" y="257" width="4" height="4"/><rect x="120" y="257" width="4" height="4"/><rect x="105" y="262" width="4" height="4"/><rect x="110" y="262" width="4" height="4"/><rect x="115" y="262" width="4" height="4"/></g><text x="40" y="288" font-size="10" fill="#d7dde3" letter-spacing="1">CONTRIBUTIONS</text><text x="40" y="304" font-size="9" fill="#6b747d">365D TOTAL</text><polygon points="164,218 272,218 272,308 262,318 154,318 154,228" fill="#16191c" stroke="#2b3036"/><rect x="154" y="218" width="118" height="3" fill="#ffb800"/><g fill="#ffb800" shape-rendering="crispEdges"><rect x="171" y="242" width="4" height="4"/><rect x="176" y="242" width="4" height="4"/><rect x="181" y="242" width="4" height="4"/><rect x="166" y="247" width="4" height="4"/><rect x="181" y="247" width="4" height="4"/><rect x="186" y="247" width="4" height="4"/><rect x="166" y="252" width="4" height="4"/><rect x="176" y="252" width="4" height="4"/><rect x="186" y="252" width="4" height="4"/><rect x="166" y="257" width="4" height="4"/><rect x="171" y="257" width="4" height="4"/><rect x="186" y="257" width="4" height="4"/><rect x="171" y="262" width="4" height="4"/><rect x="176" y="262" width="4" height="4"/><rect x="181" y="262" width="4" height="4"/></g><text x="166" y="288" font-size="10" fill="#d7dde3" letter-spacing="1">CURRENT STREAK</text><text x="166" y="304" font-size="9" fill="#6b747d">DAYS</text><polygon points="290,218 398,218 398,308 388,318 280,318 280,228" fill="#16191c" stroke="#2b3036"/><rect x="280" y="218" width="118" height="3" fill="#ffb800"/><g fill="#ffb800" shape-rendering="crispEdges"><rect x="302" y="242" width="4" height="4"/><rect x="297" y="247" width="4" height="4"/><rect x="302" y="247" width="4" height="4"/><rect x="302" y="252" width="4" height="4"/><rect x="302" y="257" width="4" height="4"/><rect x="297" y="262" width="4" height="4"/><rect x="302" y="262" width="4" height="4"/><rect x="307" y="262" width="4" height="4"/><rect x="327" y="242" width="4" height="4"/><rect x="332" y="242" width="4" height="4"/><rect x="337" y="242" width="4" height="4"/><rect x="322" y="247" width="4" height="4"/><rect x="337" y="247" width="4" height="4"/><rect x="342" y="247" width="4" height="4"/><rect x="322" y="252" width="4" height="4"/><rect x="332" y="252" width="4" height="4"/><rect x="342" y="252" width="4" height="4"/><rect x="322" y="257" width="4" height="4"/><rect x="327" y="257" width="4" height="4"/><rect x="342" y="257" width="4" height="4"/><rect x="327" y="262" width="4" height="4"/><rect x="332" y="262" width="4" height="4"/><rect x="337" y="262" width="4" height="4"/></g><text x="292" y="288" font-size="10" fill="#d7dde3" letter-spacing="1">LONGEST STREAK</text><text x="292" y="304" font-size="9" fill="#6b747d">DAYS</text><polygon points="416,218 524,218 524,308 514,318 406,318 406,228" fill="#16191c" stroke="#2b3036"/><rect x="406" y="218" width="118" height="3" fill="#ffb800"/><g fill="#ffb800" shape-rendering="crispEdges"><rect x="423" y="242" width="4" height="4"/><rect x="428" y="242" width="4" height="4"/><rect x="433" y="242" width="4" height="4"/><rect x="418" y="247" width="4" height="4"/><rect x="438" y="247" width="4" height="4"/><rect x="423" y="252" width="4" height="4"/><rect x="428" y="252" width="4" height="4"/><rect x="433" y="252" width="4" height="4"/><rect x="438" y="252" width="4" height="4"/><rect x="438" y="257" width="4" height="4"/><rect x="423" y="262" width="4" height="4"/><rect x="428" y="262" width="4" height="4"/><rect x="433" y="262" width="4" height="4"/></g><text x="418" y="288" font-size="10" fill="#d7dde3" letter-spacing="1">PEAK DAY</text><text x="418" y="304" font-size="9" fill="#6b747d">2026-02-15</text><text x="548" y="236" font-size="10" fill="#d7dde3" letter-spacing="1">WEEKLY PULSE</text><path d="M548 322H872" stroke="#2b3036"/><rect x="548.0" y="306.1" width="4.1" height="11.9" fill="#ff8a00" opacity="0.55"/><rect x="554.1" y="308.5" width="4.1" height="9.5" fill="#ff8a00" opacity="0.55"/><rect x="560.2" y="306.1" width="4.1" height="11.9" fill="#ff8a00" opacity="0.55"/><rect x="566.3" y="316.0" width="4.1" height="2.0" fill="#ff8a00" opacity="0.55"/><rect x="572.5" y="303.7" width="4.1" height="14.3" fill="#ff8a00" opacity="0.55"/><rect x="578.6" y="316.0" width="4.1" height="2.0" fill="#ff8a00" opacity="0.55"/><rect x="584.7" y="308.5" width="4.1" height="9.5" fill="#ff8a00" opacity="0.55"/><rect x="590.8" y="315.6" width="4.1" height="2.4" fill="#ff8a00" opacity="0.55"/><rect x="596.9" y="306.1" width="4.1" height="11.9" fill="#ff8a00" opacity="0.55"/><rect x="603.0" y="315.6" width="4.1" height="2.4" fill="#ff8a00" opacity="0.55"/><rect x="609.1" y="316.0" width="4.1" height="2.0" fill="#ff8a00" opacity="0.55"/><rect x="615.2" y="316.0" width="4.1" height="2.0" fill="#ff8a00" opacity="0.55"/><rect x="621.4" y="308.5" width="4.1" height="9.5" fill="#ff8a00" opacity="0.55"/><rect x="627.5" y="303.7" width="4.1" height="14.3" fill="#ff8a00" opacity="0.55"/><rect x="633.6" y="270.3" width="4.1" height="47.7" fill="#ff8a00" opacity="0.55"/><rect x="639.7" y="306.1" width="4.1" height="11.9" fill="#ff8a00" opacity="0.55"/><rect x="645.8" y="303.7" width="4.1" height="14.3" fill="#ff8a00" opacity="0.55"/><rect x="651.9" y="316.0" width="4.1" height="2.0" fill="#ff8a00" opacity="0.55"/><rect x="658.0" y="298.9" width="4.1" height="19.1" fill="#ff8a00" opacity="0.55"/><rect x="664.2" y="270.3" width="4.1" height="47.7" fill="#ff8a00" opacity="0.55"/><rect x="670.3" y="260.8" width="4.1" height="57.2" fill="#ff8a00" opacity="0.55"/><rect x="676.4" y="313.2" width="4.1" height="4.8" fill="#ff8a00" opacity="0.55"/><rect x="682.5" y="316.0" width="4.1" height="2.0" fill="#ff8a00" opacity="0.55"/><rect x="688.6" y="316.0" width="4.1" height="2.0" fill="#ff8a00" opacity="0.55"/><rect x="694.7" y="303.7" width="4.1" height="14.3" fill="#ff8a00" opacity="0.55"/><rect x="700.8" y="313.2" width="4.1" height="4.8" fill="#ff8a00" opacity="0.55"/><rect x="706.9" y="310.8" width="4.1" height="7.2" fill="#ff8a00" opacity="0.55"/><rect x="713.1" y="306.1" width="4.1" height="11.9" fill="#ff8a00" opacity="0.55"/><rect x="719.2" y="316.0" width="4.1" height="2.0" fill="#ff8a00" opacity="0.55"/><rect x="725.3" y="316.0" width="4.1" height="2.0" fill="#ff8a00" opacity="0.55"/><rect x="731.4" y="313.2" width="4.1" height="4.8" fill="#ff8a00" opacity="0.55"/><rect x="737.5" y="313.2" width="4.1" height="4.8" fill="#ff8a00" opacity="0.55"/><rect x="743.6" y="303.7" width="4.1" height="14.3" fill="#ff8a00" opacity="0.55"/><rect x="749.7" y="275.1" width="4.1" height="42.9" fill="#ff8a00" opacity="0.55"/><rect x="755.8" y="296.5" width="4.1" height="21.5" fill="#ff8a00" opacity="0.55"/><rect x="762.0" y="316.0" width="4.1" height="2.0" fill="#ff8a00" opacity="0.55"/><rect x="768.1" y="306.1" width="4.1" height="11.9" fill="#ff8a00" opacity="0.55"/><rect x="774.2" y="316.0" width="4.1" height="2.0" fill="#ff8a00" opacity="0.55"/><rect x="780.3" y="310.8" width="4.1" height="7.2" fill="#ff8a00" opacity="0.55"/><rect x="786.4" y="315.6" width="4.1" height="2.4" fill="#ff8a00" opacity="0.55"/><rect x="792.5" y="298.9" width="4.1" height="19.1" fill="#ff8a00" opacity="0.55"/><rect x="798.6" y="303.7" width="4.1" height="14.3" fill="#ff8a00" opacity="0.55"/><rect x="804.8" y="315.6" width="4.1" height="2.4" fill="#ff8a00" opacity="0.55"/><rect x="810.9" y="316.0" width="4.1" height="2.0" fill="#ff8a00" opacity="0.55"/><rect x="817.0" y="316.0" width="4.1" height="2.0" fill="#ff8a00" opacity="0.55"/><rect x="823.1" y="267.9" width="4.1" height="50.1" fill="#ff8a00" opacity="0.55"/><rect x="829.2" y="316.0" width="4.1" height="2.0" fill="#ff8a00" opacity="0.55"/><rect x="835.3" y="256.0" width="4.1" height="62.0" fill="#ffb800" opacity="1"/><rect x="841.4" y="315.6" width="4.1" height="2.4" fill="#ff8a00" opacity="0.55"/><rect x="847.5" y="308.5" width="4.1" height="9.5" fill="#ff8a00" opacity="0.55"/><rect x="853.7" y="291.8" width="4.1" height="26.2" fill="#ff8a00" opacity="0.55"/><rect x="859.8" y="315.6" width="4.1" height="2.4" fill="#ff8a00" opacity="0.55"/><rect x="865.9" y="296.5" width="4.1" height="21.5" fill="#ff8a00" opacity="0.55"/><path d="M8 14H20M14 8V20" stroke="#6b747d" stroke-width="1"/><path d="M880 336H892M886 330V342" stroke="#6b747d" stroke-width="1"/></svg>