<svg xmlns="http://www.w3.org/2000/svg" viewBox="0 0 900 190" font-family="'Courier New',Consolas,monospace"><style>.bl{animation:bl 1.2s steps(1) infinite}@keyframes bl{50%{opacity:0}}.fl{animation:fl 5s ease-in-out infinite}@keyframes fl{50%{transform:translateY(-8px)}}.pl{animation:pl 2.4s ease-in-out infinite}@keyframes pl{50%{opacity:.5}}</style><defs><pattern id="hdhz" width="12" height="12" patternUnits="userSpaceOnUse" patternTransform="rotate(45)"><rect width="6" height="12" fill="#ffb800"/></pattern><pattern id="hdsc" width="4" height="4" patternUnits="userSpaceOnUse"><rect width="4" height="1" fill="#fff" opacity=".04"/></pattern><filter id="hdgl" x="-30%" y="-30%" width="160%" height="160%"><feGaussianBlur stdDeviation="3" result="b"/><feMerge><feMergeNode in="b"/><feMergeNode in="SourceGraphic"/></feMerge></filter></defs><polygon points="24.5,0.5 899.5,0.5 899.5,165.5 875.5,189.5 0.5,189.5 0.5,24.5" fill="#0f1113" stroke="#2b3036"/><polygon points="24.5,0.5 899.5,0.5 899.5,165.5 875.5,189.5 0.5,189.5 0.5,24.5" fill="url(#hdsc)"/><path d="M8 14H20M14 8V20" stroke="#6b747d" stroke-width="1"/><path d="M880 176H892M886 170V182" stroke="#6b747d" stroke-width="1"/><text x="30" y="34" font-size="11" fill="#6b747d" letter-spacing="3">// OPERATOR PROFILE</text><text x="840" y="34" font-size="11" fill="#6b747d" text-anchor="end" letter-spacing="2">UNIT SK-2028 / REV 5.0</text><rect x="852" y="26" width="8" height="8" fill="#39ff88" class="bl"/><text x="866" y="34" font-size="11" fill="#39ff88">ON</text><g opacity=".6" transform="translate(4 3)"><g fill="#19e6ff" shape-rendering="crispEdges"><rect x="39" y="56" width="8" height="8"/><rect x="48" y="56" width="8" height="8"/><rect x="57" y="56" width="8" height="8"/><rect x="66" y="56" width="8" height="8"/><rect x="30" y="65" width="8" height="8"/><rect x="39" y="74" width="8" height="8"/><rect x="48" y="74" width="8" height="8"/><rect x="57" y="74" width="8" height="8"/><rect x="66" y="83" width="8" height="8"/><rect x="30" y="92" width="8" height="8"/><rect x="39" y="92" width="8" height="8"/><rect x="48" y="92" width="8" height="8"/><rect x="57" y="92" width="8" height="8"/><rect x="93" y="56" width="8" height="8"/><rect x="102" y="56" width="8" height="8"/><rect x="111" y="56" width="8" height="8"/><rect x="84" y="65" width="8" height="8"/><rect x="120" y="65" width="8" height="8"/><rect x="84" y="74" width="8" height="8"/><rect x="93" y="74" width="8" height="8"/><rect x="102" y="74" width="8" height="8"/><rect x="111" y="74" width="8" height="8"/><rect x="120" y="74" width="8" height="8"/><rect x="84" y="83" width="8" height="8"/><rect x="120" y="83" width="8" height="8"/><rect x="84" y="92" width="8" height="8"/><rect x="120" y="92" width="8" height="8"/><rect x="138" y="56" width="8" height="8"/><rect x="165" y="56" width="8" height="8"/><rect x="138" y="65" width="8" height="8"/><rect x="156" y="65" width="8" height="8"/><rect x="138" y="74" width="8" height="8"/><rect x="147" y="74" width="8" height="8"/><rect x="138" y="83" width="8" height="8"/><rect x="156" y="83" width="8" height="8"/><rect x="138" y="92" width="8" height="8"/><rect x="165" y="92" width="8" height="8"/><rect x="201" y="56" width="8" height="8"/><rect x="210" y="56" width="8" height="8"/><rect x="219" y="56" width="8" height="8"/><rect x="228" y="56" width="8" height="8"/><rect x="192" y="65" width="8" height="8"/><rect x="201" y="74" width="8" height="8"/><rect x="210" y="74" width="8" height="8"/><rect x="219" y="74" width="8" height="8"/><rect x="228" y="83" width="8" height="8"/><rect x="192" y="92" width="8" height="8"/><rect x="201" y="92" width="8" height="8"/><rect x="210" y="92" width="8" height="8"/><rect x="219" y="92" width="8" height="8"/><rect x="246" y="56" width="8" height="8"/><rect x="282" y="56" width="8" height="8"/><rect x="246" y="65" width="8" height="8"/><rect x="282" y="65" width="8" height="8"/><rect x="246" y="74" width="8" height="8"/><rect x="255" y="74" width="8" height="8"/><rect x="264" y="74" width="8" height="8"/><rect x="273" y="74" width="8" height="8"/><rect x="282" y="74" width="8" height="8"/><rect x="246" y="83" width="8" height="8"/><rect x="282" y="83" width="8" height="8"/><rect x="246" y="92" width="8" height="8"/><rect x="282" y="92" width="8" height="8"/><rect x="309" y="56" width="8" height="8"/><rect x="318" y="56" width="8" height="8"/><rect x="327" y="56" width="8" height="8"/><rect x="300" y="65" width="8" height="8"/><rect x="336" y="65" width="8" height="8"/><rect x="300" y="74" width="8" height="8"/><rect x="309" y="74" width="8" height="8"/><rect x="318" y="74" width="8" height="8"/><rect x="327" y="74" width="8" height="8"/><rect x="336" y="74" width="8" height="8"/><rect x="300" y="83" width="8" height="8"/><rect x="336" y="83" width="8" height="8"/><rect x="300" y="92" width="8" height="8"/><rect x="336" y="92" width="8" height="8"/><rect x="354" y="56" width="8" height="8"/><rect x="390" y="56" width="8" height="8"/><rect x="354" y="65" width="8" height="8"/><rect x="363" y="65" width="8" height="8"/><rect x="381" y="65" width="8" height="8"/><rect x="390" y="65" width="8" height="8"/><rect x="354" y="74" width="8" height="8"/><rect x="372" y="74" width="8" height="8"/><rect x="390" y="74" width="8" height="8"/><rect x="354" y="83" width="8" height="8"/><rect x="390" y="83" width="8" height="8"/><rect x="354" y="92" width="8" height="8"/><rect x="390" y="92" width="8" height="8"/><rect x="444" y="56" width="8" height="8"/><rect x="453" y="56" width="8" height="8"/><rect x="462" y="56" width="8" height="8"/><rect x="471" y="56" width="8" height="8"/><rect x="435" y="65" width="8" height="8"/><rect x="435" y="74" width="8" height="8"/><rect x="462" y="74" width="8" height="8"/><rect x="471" y="74" width="8" height="8"/><rect x="435" y="83" width="8" height="8"/><rect x="471" y="83" width="8" height="8"/><rect x="444" y="92" width="8" height="8"/><rect x="453" y="92" width="8" height="8"/><rect x="462" y="92" width="8" height="8"/><rect x="471" y="92" width="8" height="8"/><rect x="489" y="56" width="8" height="8"/><rect x="525" y="56" width="8" height="8"/><rect x="489" y="65" width="8" height="8"/><rect x="525" y="65" width="8" height="8"/><rect x="489" y="74" width="8" height="8"/><rect x="525" y="74" width="8" height="8"/><rect x="489" y="83" width="8" height="8"/><rect x="525" y="83" width="8" height="8"/><rect x="498" y="92" width="8" height="8"/><rect x="507" y="92" width="8" height="8"/><rect x="516" y="92" width="8" height="8"/><rect x="543" y="56" width="8" height="8"/><rect x="552" y="56" width="8" height="8"/><rect x="561" y="56" width="8" height="8"/><rect x="570" y="56" width="8" height="8"/><rect x="543" y="65" width="8" height="8"/><rect x="579" y="65" width="8" height="8"/><rect x="543" y="74" width="8" height="8"/><rect x="552" y="74" width="8" height="8"/><rect x="561" y="74" width="8" height="8"/><rect x="570" y="74" width="8" height="8"/><rect x="543" y="83" width="8" height="8"/><rect x="543" y="92" width="8" height="8"/><rect x="597" y="56" width="8" height="8"/><rect x="606" y="56" width="8" height="8"/><rect x="615" y="56" width="8" height="8"/><rect x="624" y="56" width="8" height="8"/><rect x="633" y="56" width="8" height="8"/><rect x="615" y="65" width="8" height="8"/><rect x="615" y="74" width="8" height="8"/><rect x="615" y="83" width="8" height="8"/><rect x="615" y="92" width="8" height="8"/><rect x="660" y="56" width="8" height="8"/><rect x="669" y="56" width="8" height="8"/><rect x="678" y="56" width="8" height="8"/><rect x="651" y="65" width="8" height="8"/><rect x="687" y="65" width="8" height="8"/><rect x="651" y="74" width="8" height="8"/><rect x="660" y="74" width="8" height="8"/><rect x="669" y="74" width="8" height="8"/><rect x="678" y="74" width="8" height="8"/><rect x="687" y="74" width="8" height="8"/><rect x="651" y="83" width="8" height="8"/><rect x="687" y="83" width="8" height="8"/><rect x="651" y="92" width="8" height="8"/><rect x="687" y="92" width="8" height="8"/></g></g><g filter="url(#hdgl)"><g fill="#ffb800" shape-rendering="crispEdges"><rect x="39" y="56" width="8" height="8"/><rect x="48" y="56" width="8" height="8"/><rect x="57" y="56" width="8" height="8"/><rect x="66" y="56" width="8" height="8"/><rect x="30" y="65" width="8" height="8"/><rect x="39" y="74" width="8" height="8"/><rect x="48" y="74" width="8" height="8"/><rect x="57" y="74" width="8" height="8"/><rect x="66" y="83" width="8" height="8"/><rect x="30" y="92" width="8" height="8"/><rect x="39" y="92" width="8" height="8"/><rect x="48" y="92" width="8" height="8"/><rect x="57" y="92" width="8" height="8"/><rect x="93" y="56" width="8" height="8"/><rect x="102" y="56" width="8" height="8"/><rect x="111" y="56" width="8" height="8"/><rect x="84" y="65" width="8" height="8"/><rect x="120" y="65" width="8" height="8"/><rect x="84" y="74" width="8" height="8"/><rect x="93" y="74" width="8" height="8"/><rect x="102" y="74" width="8" height="8"/><rect x="111" y="74" width="8" height="8"/><rect x="120" y="74" width="8" height="8"/><rect x="84" y="83" width="8" height="8"/><rect x="120" y="83" width="8" height="8"/><rect x="84" y="92" width="8" height="8"/><rect x="120" y="92" width="8" height="8"/><rect x="138" y="56" width="8" height="8"/><rect x="165" y="56" width="8" height="8"/><rect x="138" y="65" width="8" height="8"/><rect x="156" y="65" width="8" height="8"/><rect x="138" y="74" width="8" height="8"/><rect x="147" y="74" width="8" height="8"/><rect x="138" y="83" width="8" height="8"/><rect x="156" y="83" width="8" height="8"/><rect x="138" y="92" width="8" height="8"/><rect x="165" y="92" width="8" height="8"/><rect x="201" y="56" width="8" height="8"/><rect x="210" y="56" width="8" height="8"/><rect x="219" y="56" width="8" height="8"/><rect x="228" y="56" width="8" height="8"/><rect x="192" y="65" width="8" height="8"/><rect x="201" y="74" width="8" height="8"/><rect x="210" y="74" width="8" height="8"/><rect x="219" y="74" width="8" height="8"/><rect x="228" y="83" width="8" height="8"/><rect x="192" y="92" width="8" height="8"/><rect x="201" y="92" width="8" height="8"/><rect x="210" y="92" width="8" height="8"/><rect x="219" y="92" width="8" height="8"/><rect x="246" y="56" width="8" height="8"/><rect x="282" y="56" width="8" height="8"/><rect x="246" y="65" width="8" height="8"/><rect x="282" y="65" width="8" height="8"/><rect x="246" y="74" width="8" height="8"/><rect x="255" y="74" width="8" height="8"/><rect x="264" y="74" width="8" height="8"/><rect x="273" y="74" width="8" height="8"/><rect x="282" y="74" width="8" height="8"/><rect x="246" y="83" width="8" height="8"/><rect x="282" y="83" width="8" height="8"/><rect x="246" y="92" width="8" height="8"/><rect x="282" y="92" width="8" height="8"/><rect x="309" y="56" width="8" height="8"/><rect x="318" y="56" width="8" height="8"/><rect x="327" y="56" width="8" height="8"/><rect x="300" y="65" width="8" height="8"/><rect x="336" y="65" width="8" height="8"/><rect x="300" y="74" width="8" height="8"/><rect x="309" y="74" width="8" height="8"/><rect x="318" y="74" width="8" height="8"/><rect x="327" y="74" width="8" height="8"/><rect x="336" y="74" width="8" height="8"/><rect x="300" y="83" width="8" height="8"/><rect x="336" y="83" width="8" height="8"/><rect x="300" y="92" width="8" height="8"/><rect x="336" y="92" width="8" height="8"/><rect x="354" y="56" width="8" height="8"/><rect x="390" y="56" width="8" height="8"/><rect x="354" y="65" width="8" height="8"/><rect x="363" y="65" width="8" height="8"/><rect x="381" y="65" width="8" height="8"/><rect x="390" y="65" width="8" height="8"/><rect x="354" y="74" width="8" height="8"/><rect x="372" y="74" width="8" height="8"/><rect x="390" y="74" width="8" height="8"/><rect x="354" y="83" width="8" height="8"/><rect x="390" y="83" width="8" height="8"/><rect x="354" y="92" width="8" height="8"/><rect x="390" y="92" width="8" height="8"/><rect x="444" y="56" width="8" height="8"/><rect x="453" y="56" width="8" height="8"/><rect x="462" y="56" width="8" height="8"/><rect x="471" y="56" width="8" height="8"/><rect x="435" y="65" width="8" height="8"/><rect x="435" y="74" width="8" height="8"/><rect x="462" y="74" width="8" height="8"/><rect x="471" y="74" width="8" height="8"/><rect x="435" y="83" width="8" height="8"/><rect x="471" y="83" width="8" height="8"/><rect x="444" y="92" width="8" height="8"/><rect x="453" y="92" width="8" height="8"/><rect x="462" y="92" width="8" height="8"/><rect x="471" y="92" width="8" height="8"/><rect x="489" y="56" width="8" height="8"/><rect x="525" y="56" width="8" height="8"/><rect x="489" y="65" width="8" height="8"/><rect x="525" y="65" width="8" height="8"/><rect x="489" y="74" width="8" height="8"/><rect x="525" y="74" width="8" height="8"/><rect x="489" y="83" width="8" height="8"/><rect x="525" y="83" width="8" height="8"/><rect x="498" y="92" width="8" height="8"/><rect x="507" y="92" width="8" height="8"/><rect x="516" y="92" width="8" height="8"/><rect x="543" y="56" width="8" height="8"/><rect x="552" y="56" width="8" height="8"/><rect x="561" y="56" width="8" height="8"/><rect x="570" y="56" width="8" height="8"/><rect x="543" y="65" width="8" height="8"/><rect x="579" y="65" width="8" height="8"/><rect x="543" y="74" width="8" height="8"/><rect x="552" y="74" width="8" height="8"/><rect x="561" y="74" width="8" height="8"/><rect x="570" y="74" width="8" height="8"/><rect x="543" y="83" width="8" height="8"/><rect x="543" y="92" width="8" height="8"/><rect x="597" y="56" width="8" height="8"/><rect x="606" y="56" width="8" height="8"/><rect x="615" y="56" width="8" height="8"/><rect x="624" y="56" width="8" height="8"/><rect x="633" y="56" width="8" height="8"/><rect x="615" y="65" width="8" height="8"/><rect x="615" y="74" width="8" height="8"/><rect x="615" y="83" width="8" height="8"/><rect x="615" y="92" width="8" height="8"/><rect x="660" y="56" width="8" height="8"/><rect x="669" y="56" width="8" height="8"/><rect x="678" y="56" width="8" height="8"/><rect x="651" y="65" width="8" height="8"/><rect x="687" y="65" width="8" height="8"/><rect x="651" y="74" width="8" height="8"/><rect x="660" y="74" width="8" height="8"/><rect x="669" y="74" width="8" height="8"/><rect x="678" y="74" width="8" height="8"/><rect x="687" y="74" width="8" height="8"/><rect x="651" y="83" width="8" height="8"/><rect x="687" y="83" width="8" height="8"/><rect x="651" y="92" width="8" height="8"/><rect x="687" y="92" width="8" height="8"/></g></g><clipPath id="hdc"><rect x="0" y="70" width="900" height="9"/></clipPath><g clip-path="url(#hdc)"><g><animateTransform attributeName="transform" type="translate" values="0 0;10 0;-8 0;0 0;0 0" keyTimes="0;.03;.06;.09;1" dur="5s" repeatCount="indefinite"/><g fill="#19e6ff" shape-rendering="crispEdges"><rect x="39" y="56" width="8" height="8"/><rect x="48" y="56" width="8" height="8"/><rect x="57" y="56" width="8" height="8"/><rect x="66" y="56" width="8" height="8"/><rect x="30" y="65" width="8" height="8"/><rect x="39" y="74" width="8" height="8"/><rect x="48" y="74" width="8" height="8"/><rect x="57" y="74" width="8" height="8"/><rect x="66" y="83" width="8" height="8"/><rect x="30" y="92" width="8" height="8"/><rect x="39" y="92" width="8" height="8"/><rect x="48" y="92" width="8" height="8"/><rect x="57" y="92" width="8" height="8"/><rect x="93" y="56" width="8" height="8"/><rect x="102" y="56" width="8" height="8"/><rect x="111" y="56" width="8" height="8"/><rect x="84" y="65" width="8" height="8"/><rect x="120" y="65" width="8" height="8"/><rect x="84" y="74" width="8" height="8"/><rect x="93" y="74" width="8" height="8"/><rect x="102" y="74" width="8" height="8"/><rect x="111" y="74" width="8" height="8"/><rect x="120" y="74" width="8" height="8"/><rect x="84" y="83" width="8" height="8"/><rect x="120" y="83" width="8" height="8"/><rect x="84" y="92" width="8" height="8"/><rect x="120" y="92" width="8" height="8"/><rect x="138" y="56" width="8" height="8"/><rect x="165" y="56" width="8" height="8"/><rect x="138" y="65" width="8" height="8"/><rect x="156" y="65" width="8" height="8"/><rect x="138" y="74" width="8" height="8"/><rect x="147" y="74" width="8" height="8"/><rect x="138" y="83" width="8" height="8"/><rect x="156" y="83" width="8" height="8"/><rect x="138" y="92" width="8" height="8"/><rect x="165" y="92" width="8" height="8"/><rect x="201" y="56" width="8" height="8"/><rect x="210" y="56" width="8" height="8"/><rect x="219" y="56" width="8" height="8"/><rect x="228" y="56" width="8" height="8"/><rect x="192" y="65" width="8" height="8"/><rect x="201" y="74" width="8" height="8"/><rect x="210" y="74" width="8" height="8"/><rect x="219" y="74" width="8" height="8"/><rect x="228" y="83" width="8" height="8"/><rect x="192" y="92" width="8" height="8"/><rect x="201" y="92" width="8" height="8"/><rect x="210" y="92" width="8" height="8"/><rect x="219" y="92" width="8" height="8"/><rect x="246" y="56" width="8" height="8"/><rect x="282" y="56" width="8" height="8"/><rect x="246" y="65" width="8" height="8"/><rect x="282" y="65" width="8" height="8"/><rect x="246" y="74" width="8" height="8"/><rect x="255" y="74" width="8" height="8"/><rect x="264" y="74" width="8" height="8"/><rect x="273" y="74" width="8" height="8"/><rect x="282" y="74" width="8" height="8"/><rect x="246" y="83" width="8" height="8"/><rect x="282" y="83" width="8" height="8"/><rect x="246" y="92" width="8" height="8"/><rect x="282" y="92" width="8" height="8"/><rect x="309" y="56" width="8" height="8"/><rect x="318" y="56" width="8" height="8"/><rect x="327" y="56" width="8" height="8"/><rect x="300" y="65" width="8" height="8"/><rect x="336" y="65" width="8" height="8"/><rect x="300" y="74" width="8" height="8"/><rect x="309" y="74" width="8" height="8"/><rect x="318" y="74" width="8" height="8"/><rect x="327" y="74" width="8" height="8"/><rect x="336" y="74" width="8" height="8"/><rect x="300" y="83" width="8" height="8"/><rect x="336" y="83" width="8" height="8"/><rect x="300" y="92" width="8" height="8"/><rect x="336" y="92" width="8" height="8"/><rect x="354" y="56" width="8" height="8"/><rect x="390" y="56" width="8" height="8"/><rect x="354" y="65" width="8" height="8"/><rect x="363" y="65" width="8" height="8"/><rect x="381" y="65" width="8" height="8"/><rect x="390" y="65" width="8" height="8"/><rect x="354" y="74" width="8" height="8"/><rect x="372" y="74" width="8" height="8"/><rect x="390" y="74" width="8" height="8"/><rect x="354" y="83" width="8" height="8"/><rect x="390" y="83" width="8" height="8"/><rect x="354" y="92" width="8" height="8"/><rect x="390" y="92" width="8" height="8"/><rect x="444" y="56" width="8" height="8"/><rect x="453" y="56" width="8" height="8"/><rect x="462" y="56" width="8" height="8"/><rect x="471" y="56" width="8" height="8"/><rect x="435" y="65" width="8" height="8"/><rect x="435" y="74" width="8" height="8"/><rect x="462" y="74" width="8" height="8"/><rect x="471" y="74" width="8" height="8"/><rect x="435" y="83" width="8" height="8"/><rect x="471" y="83" width="8" height="8"/><rect x="444" y="92" width="8" height="8"/><rect x="453" y="92" width="8" height="8"/><rect x="462" y="92" width="8" height="8"/><rect x="471" y="92" width="8" height="8"/><rect x="489" y="56" width="8" height="8"/><rect x="525" y="56" width="8" height="8"/><rect x="489" y="65" width="8" height="8"/><rect x="525" y="65" width="8" height="8"/><rect x="489" y="74" width="8" height="8"/><rect x="525" y="74" width="8" height="8"/><rect x="489" y="83" width="8" height="8"/><rect x="525" y="83" width="8" height="8"/><rect x="498" y="92" width="8" height="8"/><rect x="507" y="92" width="8" height="8"/><rect x="516" y="92" width="8" height="8"/><rect x="543" y="56" width="8" height="8"/><rect x="552" y="56" width="8" height="8"/><rect x="561" y="56" width="8" height="8"/><rect x="570" y="56" width="8" height="8"/><rect x="543" y="65" width="8" height="8"/><rect x="579" y="65" width="8" height="8"/><rect x="543" y="74" width="8" height="8"/><rect x="552" y="74" width="8" height="8"/><rect x="561" y="74" width="8" height="8"/><rect x="570" y="74" width="8" height="8"/><rect x="543" y="83" width="8" height="8"/><rect x="543" y="92" width="8" height="8"/><rect x="597" y="56" width="8" height="8"/><rect x="606" y="56" width="8" height="8"/><rect x="615" y="56" width="8" height="8"/><rect x="624" y="56" width="8" height="8"/><rect x="633" y="56" width="8" height="8"/><rect x="615" y="65" width="8" height="8"/><rect x="615" y="74" width="8" height="8"/><rect x="615" y="83" width="8" height="8"/><rect x="615" y="92" width="8" height="8"/><rect x="660" y="56" width="8" height="8"/><rect x="669" y="56" width="8" height="8"/><rect x="678" y="56" width="8" height="8"/><rect x="651" y="65" width="8" height="8"/><rect x="687" y="65" width="8" height="8"/><rect x="651" y="74" width="8" height="8"/><rect x="660" y="74" width="8" height="8"/><rect x="669" y="74" width="8" height="8"/><rect x="678" y="74" width="8" height="8"/><rect x="687" y="74" width="8" height="8"/><rect x="651" y="83" width="8" height="8"/><rect x="687" y="83" width="8" height="8"/><rect x="651" y="92" width="8" height="8"/><rect x="687" y="92" width="8" height="8"/></g></g></g><text x="30" y="132" font-size="14" fill="#d7dde3" letter-spacing="1">B.TECH CSE <tspan fill="#ffb800">//</tspan> JIIT NOIDA <tspan fill="#ffb800">//</tspan> CLASS OF 2028 <tspan fill="#ffb800">//</tspan> OSDC COORDINATOR</text><rect x="30" y="152" width="620" height="10" fill="url(#hdhz)"/><rect x="719" y="150" width="3" height="26" fill="#6b747d"/><rect x="728" y="150" width="3" height="26" fill="#6b747d"/><rect x="733" y="150" width="2" height="26" fill="#6b747d"/><rect x="737" y="150" width="3" height="26" fill="#6b747d"/><rect x="742" y="150" width="2" height="26" fill="#6b747d"/><rect x="751" y="150" width="3" height="26" fill="#6b747d"/><rect x="761" y="150" width="1" height="26" fill="#6b747d"/><rect x="764" y="150" width="3" height="26" fill="#6b747d"/><rect x="769" y="150" width="3" height="26" fill="#6b747d"/><rect x="774" y="150" width="1" height="26" fill="#6b747d"/><rect x="777" y="150" width="1" height="26" fill="#6b747d"/><rect x="780" y="150" width="2" height="26" fill="#6b747d"/><rect x="784" y="150" width="1" height="26" fill="#6b747d"/><rect x="787" y="150" width="1" height="26" fill="#6b747d"/><rect x="797" y="150" width="3" height="26" fill="#6b747d"/><rect x="806" y="150" width="1" height="26" fill="#6b747d"/><rect x="809" y="150" width="1" height="26" fill="#6b747d"/><rect x="812" y="150" width="2" height="26" fill="#6b747d"/><rect x="821" y="150" width="1" height="26" fill="#6b747d"/><rect x="824" y="150" width="3" height="26" fill="#6b747d"/><rect x="829" y="150" width="2" height="26" fill="#6b747d"/><rect x="838" y="150" width="1" height="26" fill="#6b747d"/><rect x="841" y="150" width="3" height="26" fill="#6b747d"/><rect x="846" y="150" width="1" height="26" fill="#6b747d"/><rect x="853" y="150" width="1" height="26" fill="#6b747d"/><rect x="856" y="150" width="1" height="26" fill="#6b747d"/><rect x="859" y="150" width="3" height="26" fill="#6b747d"/><rect x="864" y="150" width="2" height="26" fill="#6b747d"/><text x="716" y="184" font-size="9" fill="#6b747d">SKG-0X1A-2028</text></svg>