<svg xmlns="http://www.w3.org/2000/svg" viewBox="0 0 900 520" font-family="-apple-system,BlinkMacSystemFont,'Segoe UI','Helvetica Neue',Arial,sans-serif"><style>.fl{animation:fl 6s ease-in-out infinite}@keyframes fl{50%{transform:translateY(-6px)}}</style><defs><filter id="bl" x="-50%" y="-50%" width="200%" height="200%"><feGaussianBlur stdDeviation="14"/></filter><linearGradient id="t0" x1="0" y1="0" x2="1" y2="1"><stop offset="0" stop-color="#f6b26b"/><stop offset="1" stop-color="#e8735a"/></linearGradient><clipPath id="tc0"><rect x="-54" y="-54" width="108" height="108" rx="30"/></clipPath><linearGradient id="t1" x1="0" y1="0" x2="1" y2="1"><stop offset="0" stop-color="#e0a3cb"/><stop offset="1" stop-color="#7b5ea7"/></linearGradient><clipPath id="tc1"><rect x="-54" y="-54" width="108" height="108" rx="30"/></clipPath><linearGradient id="t2" x1="0" y1="0" x2="1" y2="1"><stop offset="0" stop-color="#8db8ff"/><stop offset="1" stop-color="#4a5bd0"/></linearGradient><clipPath id="tc2"><rect x="-54" y="-54" width="108" height="108" rx="30"/></clipPath><linearGradient id="t3" x1="0" y1="0" x2="1" y2="1"><stop offset="0" stop-color="#93d7bb"/><stop offset="1" stop-color="#3a8f8a"/></linearGradient><clipPath id="tc3"><rect x="-54" y="-54" width="108" height="108" rx="30"/></clipPath><linearGradient id="t4" x1="0" y1="0" x2="1" y2="1"><stop offset="0" stop-color="#f2d594"/><stop offset="1" stop-color="#c98a4b"/></linearGradient><clipPath id="tc4"><rect x="-54" y="-54" width="108" height="108" rx="30"/></clipPath><linearGradient id="t5" x1="0" y1="0" x2="1" y2="1"><stop offset="0" stop-color="#aeb8da"/><stop offset="1" stop-color="#5a6488"/></linearGradient><clipPath id="tc5"><rect x="-54" y="-54" width="108" height="108" rx="30"/></clipPath></defs><rect x=".5" y=".5" width="899" height="519" rx="28" fill="#14171f" stroke="#272c39"/><text x="36" y="44" font-size="12" font-weight="600" fill="#8791a5" letter-spacing="2">PROJECTS</text><g transform="translate(110 400)"><g class="fl" style="animation-delay:-0.0s"><g transform="rotate(-24)"><g clip-path="url(#tc0)"><rect x="-54" y="-54" width="108" height="108" fill="url(#t0)"/><circle cx="-22" cy="-26" r="30" fill="#fff" opacity=".4" filter="url(#bl)"/><circle cx="30" cy="34" r="34" fill="#000" opacity=".28" filter="url(#bl)"/></g><rect x="-53.5" y="-53.5" width="107" height="107" rx="30" fill="none" stroke="#fff" stroke-opacity=".18"/><text x="-36" y="38" font-size="14" font-weight="700" fill="#fff" fill-opacity=".85">01</text></g><text y="80" text-anchor="middle" font-size="14" font-weight="600" fill="#eceef3">Classroom-DL</text><text y="99" text-anchor="middle" font-size="12" fill="#8791a5">Chrome extension</text></g></g><g transform="translate(175 230)"><g class="fl" style="animation-delay:-1.1s"><g transform="rotate(-14)"><g clip-path="url(#tc1)"><rect x="-54" y="-54" width="108" height="108" fill="url(#t1)"/><circle cx="-22" cy="-26" r="30" fill="#fff" opacity=".4" filter="url(#bl)"/><circle cx="30" cy="34" r="34" fill="#000" opacity=".28" filter="url(#bl)"/></g><rect x="-53.5" y="-53.5" width="107" height="107" rx="30" fill="none" stroke="#fff" stroke-opacity=".18"/><text x="-36" y="38" font-size="14" font-weight="700" fill="#fff" fill-opacity=".85">02</text></g><text y="80" text-anchor="middle" font-size="14" font-weight="600" fill="#eceef3">Beauty Finder</text><text y="99" text-anchor="middle" font-size="12" fill="#8791a5">AI product recommender</text></g></g><g transform="translate(345 124)"><g class="fl" style="animation-delay:-2.2s"><g transform="rotate(-5)"><g clip-path="url(#tc2)"><rect x="-54" y="-54" width="108" height="108" fill="url(#t2)"/><circle cx="-22" cy="-26" r="30" fill="#fff" opacity=".4" filter="url(#bl)"/><circle cx="30" cy="34" r="34" fill="#000" opacity=".28" filter="url(#bl)"/></g><rect x="-53.5" y="-53.5" width="107" height="107" rx="30" fill="none" stroke="#fff" stroke-opacity=".18"/><text x="-36" y="38" font-size="14" font-weight="700" fill="#fff" fill-opacity=".85">03</text></g><text y="80" text-anchor="middle" font-size="14" font-weight="600" fill="#eceef3">FakeJobPosting</text><text y="99" text-anchor="middle" font-size="12" fill="#8791a5">Fake job detection</text></g></g><g transform="translate(555 124)"><g class="fl" style="animation-delay:-3.3s"><g transform="rotate(5)"><g clip-path="url(#tc3)"><rect x="-54" y="-54" width="108" height="108" fill="url(#t3)"/><circle cx="-22" cy="-26" r="30" fill="#fff" opacity=".4" filter="url(#bl)"/><circle cx="30" cy="34" r="34" fill="#000" opacity=".28" filter="url(#bl)"/></g><rect x="-53.5" y="-53.5" width="107" height="107" rx="30" fill="none" stroke="#fff" stroke-opacity=".18"/><text x="-36" y="38" font-size="14" font-weight="700" fill="#fff" fill-opacity=".85">04</text></g><text y="80" text-anchor="middle" font-size="14" font-weight="600" fill="#eceef3">ShareSplit</text><text y="99" text-anchor="middle" font-size="12" fill="#8791a5">Currently building</text></g></g><g transform="translate(725 230)"><g class="fl" style="animation-delay:-4.4s"><g transform="rotate(14)"><g clip-path="url(#tc4)"><rect x="-54" y="-54" width="108" height="108" fill="url(#t4)"/><circle cx="-22" cy="-26" r="30" fill="#fff" opacity=".4" filter="url(#bl)"/><circle cx="30" cy="34" r="34" fill="#000" opacity=".28" filter="url(#bl)"/></g><rect x="-53.5" y="-53.5" width="107" height="107" rx="30" fill="none" stroke="#fff" stroke-opacity=".18"/><text x="-36" y="38" font-size="14" font-weight="700" fill="#fff" fill-opacity=".85">05</text></g><text y="80" text-anchor="middle" font-size="14" font-weight="600" fill="#eceef3">Tiles</text><text y="99" text-anchor="middle" font-size="12" fill="#8791a5">Open-source contribution</text></g></g><g transform="translate(790 400)"><g class="fl" style="animation-delay:-5.5s"><g transform="rotate(24)"><g clip-path="url(#tc5)"><rect x="-54" y="-54" width="108" height="108" fill="url(#t5)"/><circle cx="-22" cy="-26" r="30" fill="#fff" opacity=".4" filter="url(#bl)"/><circle cx="30" cy="34" r="34" fill="#000" opacity=".28" filter="url(#bl)"/></g><rect x="-53.5" y="-53.5" width="107" height="107" rx="30" fill="none" stroke="#fff" stroke-opacity=".18"/><text x="-36" y="38" font-size="14" font-weight="700" fill="#fff" fill-opacity=".85">06</text></g><text y="80" text-anchor="middle" font-size="14" font-weight="600" fill="#eceef3">Kabadiwala</text><text y="99" text-anchor="middle" font-size="12" fill="#8791a5">Collaboration</text></g></g><text x="450" y="268" text-anchor="middle" font-size="36" font-weight="700" fill="#eceef3" letter-spacing="-.6">Selected work</text><text x="450" y="300" text-anchor="middle" font-size="15" fill="#8791a5">Six projects across web, backend and AI.</text><rect x="334" y="326" width="232" height="42" rx="21" fill="#eceef3"/><text x="450" y="352" text-anchor="middle" font-size="14" font-weight="600" fill="#14171f">View all repositories</text></svg>