<svg xmlns="http://www.w3.org/2000/svg" viewBox="0 0 900 120" font-family="-apple-system,BlinkMacSystemFont,'Segoe UI','Helvetica Neue',Arial,sans-serif"><style>.fl{animation:fl 6s ease-in-out infinite}@keyframes fl{50%{transform:translateY(-6px)}}</style><defs></defs><rect x=".5" y=".5" width="899" height="119" rx="24" fill="#14171f" stroke="#272c39"/><text x="36" y="38" font-size="12" font-weight="600" fill="#8791a5" letter-spacing="2">STACK</text><rect x="36" y="60" width="78" height="38" rx="19" fill="#1b1f29" stroke="#272c39"/><circle cx="57" cy="79" r="4" fill="#e8718d"/><text x="68" y="84.25" font-size="15" fill="#b6bdcc" text-anchor="start">C++</text><rect x="135" y="60" width="104" height="38" rx="19" fill="#1b1f29" stroke="#272c39"/><circle cx="156" cy="79" r="4" fill="#6fa8dc"/><text x="167" y="84.25" font-size="15" fill="#b6bdcc" text-anchor="start">Python</text><rect x="260" y="60" width="139" height="38" rx="19" fill="#1b1f29" stroke="#272c39"/><circle cx="281" cy="79" r="4" fill="#f0d264"/><text x="292" y="84.25" font-size="15" fill="#b6bdcc" text-anchor="start">JavaScript</text><rect x="420" y="60" width="139" height="38" rx="19" fill="#1b1f29" stroke="#272c39"/><circle cx="441" cy="79" r="4" fill="#5b9bd5"/><text x="452" y="84.25" font-size="15" fill="#b6bdcc" text-anchor="start">TypeScript</text><rect x="579" y="60" width="87" height="38" rx="19" fill="#1b1f29" stroke="#272c39"/><circle cx="600" cy="79" r="4" fill="#e8825a"/><text x="611" y="84.25" font-size="15" fill="#b6bdcc" text-anchor="start">HTML</text><rect x="687" y="60" width="78" height="38" rx="19" fill="#1b1f29" stroke="#272c39"/><circle cx="708" cy="79" r="4" fill="#9b8cf0"/><text x="719" y="84.25" font-size="15" fill="#b6bdcc" text-anchor="start">CSS</text><rect x="786" y="60" width="78" height="38" rx="19" fill="#1b1f29" stroke="#272c39"/><circle cx="807" cy="79" r="4" fill="#8d93c9"/><text x="818" y="84.25" font-size="15" fill="#b6bdcc" text-anchor="start">PHP</text></svg>