<svg xmlns="http://www.w3.org/2000/svg" viewBox="0 0 900 36" width="900" height="36" role="img" aria-label="05 / CONTACT"><title>05 / CONTACT</title><g transform="scale(3)" shape-rendering="crispEdges">
<!-- label -->
<g id="label"><path fill="#2d4630" d="M2 0h296v1h-296zM0 2h1v8h-1zM299 2h1v8h-1zM2 11h296v1h-296z"/><path fill="#0f1722" d="M1 1h298v1h-298zM1 2h2v9h-2zM18 2h281v2h-281zM18 4h8v1h-8zM27 4h8v1h-8zM39 4h2v1h-2zM44 4h2v1h-2zM47 4h3v1h-3zM51 4h1v7h-1zM57 4h2v1h-2zM62 4h3v1h-3zM69 4h1v7h-1zM75 4h208v2h-208zM284 4h5v1h-5zM290 4h9v1h-9zM18 5h7v1h-7zM26 5h8v6h-8zM35 5h5v3h-5zM41 5h3v3h-3zM45 5h1v6h-1zM48 5h2v1h-2zM52 5h2v6h-2zM55 5h3v6h-3zM59 5h3v1h-3zM63 5h1v6h-1zM65 5h4v3h-4zM70 5h2v6h-2zM73 5h2v6h-2zM283 5h1v3h-1zM285 5h5v1h-5zM291 5h8v1h-8zM18 6h6v1h-6zM25 6h1v5h-1zM47 6h1v5h-1zM49 6h1v1h-1zM75 6h5v5h-5zM81 6h2v5h-2zM84 6h2v5h-2zM87 6h2v5h-2zM90 6h2v5h-2zM93 6h2v5h-2zM96 6h2v5h-2zM99 6h2v5h-2zM102 6h2v5h-2zM105 6h2v5h-2zM108 6h2v5h-2zM111 6h2v5h-2zM114 6h2v5h-2zM117 6h2v5h-2zM120 6h2v5h-2zM123 6h2v5h-2zM126 6h2v5h-2zM129 6h2v5h-2zM132 6h2v5h-2zM135 6h2v5h-2zM138 6h2v5h-2zM141 6h2v5h-2zM144 6h2v5h-2zM147 6h2v5h-2zM150 6h2v5h-2zM153 6h2v5h-2zM156 6h2v5h-2zM159 6h2v5h-2zM162 6h2v5h-2zM165 6h2v5h-2zM168 6h2v5h-2zM171 6h2v5h-2zM174 6h2v5h-2zM177 6h2v5h-2zM180 6h2v5h-2zM183 6h2v5h-2zM186 6h2v5h-2zM189 6h2v5h-2zM192 6h2v5h-2zM195 6h2v5h-2zM198 6h2v5h-2zM201 6h2v5h-2zM204 6h2v5h-2zM207 6h2v5h-2zM210 6h2v5h-2zM213 6h2v5h-2zM216 6h2v5h-2zM219 6h2v5h-2zM222 6h2v5h-2zM225 6h2v5h-2zM228 6h2v5h-2zM231 6h2v5h-2zM234 6h2v5h-2zM237 6h2v5h-2zM240 6h2v5h-2zM243 6h2v5h-2zM246 6h2v5h-2zM249 6h2v5h-2zM252 6h2v5h-2zM255 6h2v5h-2zM258 6h2v5h-2zM261 6h2v5h-2zM264 6h2v5h-2zM267 6h2v5h-2zM270 6h2v5h-2zM273 6h2v5h-2zM276 6h7v5h-7zM284 6h1v1h-1zM286 6h5v1h-5zM292 6h7v5h-7zM18 7h5v1h-5zM24 7h1v4h-1zM48 7h1v4h-1zM59 7h3v4h-3zM80 7h1v4h-1zM83 7h1v4h-1zM86 7h1v4h-1zM89 7h1v4h-1zM92 7h1v4h-1zM95 7h1v4h-1zM98 7h1v4h-1zM101 7h1v4h-1zM104 7h1v4h-1zM107 7h1v4h-1zM110 7h1v4h-1zM113 7h1v4h-1zM116 7h1v4h-1zM119 7h1v4h-1zM122 7h1v4h-1zM125 7h1v4h-1zM128 7h1v4h-1zM131 7h1v4h-1zM134 7h1v4h-1zM137 7h1v4h-1zM140 7h1v4h-1zM143 7h1v4h-1zM146 7h1v4h-1zM149 7h1v4h-1zM152 7h1v4h-1zM155 7h1v4h-1zM158 7h1v4h-1zM161 7h1v4h-1zM164 7h1v4h-1zM167 7h1v4h-1zM170 7h1v4h-1zM173 7h1v4h-1zM176 7h1v4h-1zM179 7h1v4h-1zM182 7h1v4h-1zM185 7h1v4h-1zM188 7h1v4h-1zM191 7h1v4h-1zM194 7h1v4h-1zM197 7h1v4h-1zM200 7h1v4h-1zM203 7h1v4h-1zM206 7h1v4h-1zM209 7h1v4h-1zM212 7h1v4h-1zM215 7h1v4h-1zM218 7h1v4h-1zM221 7h1v4h-1zM224 7h1v4h-1zM227 7h1v4h-1zM230 7h1v4h-1zM233 7h1v4h-1zM236 7h1v4h-1zM239 7h1v4h-1zM242 7h1v4h-1zM245 7h1v4h-1zM248 7h1v4h-1zM251 7h1v4h-1zM254 7h1v4h-1zM257 7h1v4h-1zM260 7h1v4h-1zM263 7h1v4h-1zM266 7h1v4h-1zM269 7h1v4h-1zM272 7h1v4h-1zM275 7h1v4h-1zM285 7h5v1h-5zM291 7h1v4h-1zM18 8h4v3h-4zM23 8h1v3h-1zM34 8h1v3h-1zM39 8h2v3h-2zM44 8h1v3h-1zM49 8h1v3h-1zM64 8h1v3h-1zM284 8h5v3h-5zM290 8h1v3h-1zM22 9h1v2h-1zM35 9h4v2h-4zM41 9h3v2h-3zM46 9h1v2h-1zM50 9h1v2h-1zM54 9h1v2h-1zM58 9h1v2h-1zM62 9h1v2h-1zM65 9h4v2h-4zM72 9h1v2h-1zM283 9h1v2h-1zM289 9h1v2h-1zM3 10h15v1h-15z"/><path fill="#e9873f" d="M3 2h15v2h-15zM3 4h3v1h-3zM9 4h2v1h-2zM16 4h2v6h-2zM3 5h2v5h-2zM6 5h2v1h-2zM10 5h1v5h-1zM12 5h4v1h-4zM6 6h1v1h-1zM8 6h1v2h-1zM15 6h1v1h-1zM7 7h1v1h-1zM11 7h4v1h-4zM5 8h1v2h-1zM9 8h1v2h-1zM15 8h1v2h-1zM6 9h3v1h-3zM11 9h4v1h-4z"/><path fill="#0a1018" d="M6 4h3v1h-3zM11 4h5v1h-5zM5 5h1v3h-1zM8 5h2v1h-2zM11 5h1v2h-1zM7 6h1v1h-1zM9 6h1v2h-1zM12 6h3v1h-3zM6 7h1v2h-1zM15 7h1v1h-1zM7 8h2v1h-2zM11 8h4v1h-4z"/><path fill="#e9e0c9" d="M26 4h1v1h-1zM35 4h4v1h-4zM41 4h3v1h-3zM46 4h1v5h-1zM50 4h1v5h-1zM52 4h5v1h-5zM59 4h3v1h-3zM65 4h4v1h-4zM70 4h5v1h-5zM25 5h1v1h-1zM34 5h1v3h-1zM40 5h1v3h-1zM44 5h1v3h-1zM47 5h1v1h-1zM54 5h1v4h-1zM58 5h1v4h-1zM62 5h1v4h-1zM64 5h1v3h-1zM72 5h1v4h-1zM24 6h1v1h-1zM48 6h1v1h-1zM59 6h3v1h-3zM23 7h1v1h-1zM49 7h1v1h-1zM22 8h1v1h-1zM35 8h4v1h-4zM41 8h3v1h-3zM65 8h4v1h-4z"/><path fill="#8b9b5a" d="M283 4h1v1h-1zM289 4h1v1h-1zM284 5h1v1h-1zM290 5h1v1h-1zM285 6h1v1h-1zM291 6h1v1h-1zM284 7h1v1h-1zM290 7h1v1h-1zM283 8h1v1h-1zM289 8h1v1h-1z"/><path fill="#3b5a3a" d="M80 6h1v1h-1zM83 6h1v1h-1zM86 6h1v1h-1zM89 6h1v1h-1zM92 6h1v1h-1zM95 6h1v1h-1zM98 6h1v1h-1zM101 6h1v1h-1zM104 6h1v1h-1zM107 6h1v1h-1zM110 6h1v1h-1zM113 6h1v1h-1zM116 6h1v1h-1zM119 6h1v1h-1zM122 6h1v1h-1zM125 6h1v1h-1zM128 6h1v1h-1zM131 6h1v1h-1zM134 6h1v1h-1zM137 6h1v1h-1zM140 6h1v1h-1zM143 6h1v1h-1zM146 6h1v1h-1zM149 6h1v1h-1zM152 6h1v1h-1zM155 6h1v1h-1zM158 6h1v1h-1zM161 6h1v1h-1zM164 6h1v1h-1zM167 6h1v1h-1zM170 6h1v1h-1zM173 6h1v1h-1zM176 6h1v1h-1zM179 6h1v1h-1zM182 6h1v1h-1zM185 6h1v1h-1zM188 6h1v1h-1zM191 6h1v1h-1zM194 6h1v1h-1zM197 6h1v1h-1zM200 6h1v1h-1zM203 6h1v1h-1zM206 6h1v1h-1zM209 6h1v1h-1zM212 6h1v1h-1zM215 6h1v1h-1zM218 6h1v1h-1zM221 6h1v1h-1zM224 6h1v1h-1zM227 6h1v1h-1zM230 6h1v1h-1zM233 6h1v1h-1zM236 6h1v1h-1zM239 6h1v1h-1zM242 6h1v1h-1zM245 6h1v1h-1zM248 6h1v1h-1zM251 6h1v1h-1zM254 6h1v1h-1zM257 6h1v1h-1zM260 6h1v1h-1zM263 6h1v1h-1zM266 6h1v1h-1zM269 6h1v1h-1zM272 6h1v1h-1zM275 6h1v1h-1z"/></g>
</g></svg>
